<svg width="24" height="24" viewBox="0 0 24 24" fill="none" xmlns="http://www.w3.org/2000/svg">
<path fill-rule="evenodd" clip-rule="evenodd" d="M2.74878 5.74561C2.74878 4.08875 4.09192 2.74561 5.74878 2.74561H18.2475C19.9044 2.74561 21.2475 4.08875 21.2475 5.74561V18.2444C21.2475 19.9012 19.9044 21.2444 18.2475 21.2444H5.74878C4.09193 21.2444 2.74878 19.9012 2.74878 18.2444V5.74561ZM5.74878 4.24561C4.92035 4.24561 4.24878 4.91718 4.24878 5.74561V18.2444C4.24878 19.0728 4.92035 19.7444 5.74878 19.7444H18.2475C19.076 19.7444 19.7475 19.0728 19.7475 18.2444V5.74561C19.7475 4.91718 19.076 4.24561 18.2475 4.24561H5.74878Z" fill="#3E1B86"/>
<path d="M12.7002 12.0887C12.2073 12.3704 11.7926 12.7056 11.5928 12.9053C11.2999 13.1982 10.8251 13.1982 10.5322 12.9053C10.2393 12.6124 10.2393 12.1376 10.5322 11.8447C10.8324 11.5444 11.3552 11.1296 11.956 10.7863C12.5427 10.451 13.3051 10.125 14.0625 10.125C15.0267 10.125 15.727 10.5005 16.1625 11.0812C16.5708 11.6256 16.6875 12.2703 16.6875 12.75V16.125C16.6875 16.5392 16.3517 16.875 15.9375 16.875C15.5233 16.875 15.1875 16.5392 15.1875 16.125V12.75C15.1875 12.4797 15.1167 12.1869 14.9625 11.9812C14.8355 11.812 14.5983 11.625 14.0625 11.625C13.6949 11.625 13.2073 11.799 12.7002 12.0887Z" fill="#3E1B86"/>
<path fill-rule="evenodd" clip-rule="evenodd" d="M11.0625 10.125C11.4767 10.125 11.8125 10.4608 11.8125 10.875V16.125C11.8125 16.5392 11.4767 16.875 11.0625 16.875C10.6483 16.875 10.3125 16.5392 10.3125 16.125V10.875C10.3125 10.4608 10.6483 10.125 11.0625 10.125Z" fill="#3E1B86"/>
<path fill-rule="evenodd" clip-rule="evenodd" d="M8.0625 10.125C8.47671 10.125 8.8125 10.4608 8.8125 10.875V16.125C8.8125 16.5392 8.47671 16.875 8.0625 16.875C7.64829 16.875 7.3125 16.5392 7.3125 16.125V10.875C7.3125 10.4608 7.64829 10.125 8.0625 10.125Z" fill="#3E1B86"/>
<path d="M8.8125 7.875C8.8125 8.28921 8.47671 8.625 8.0625 8.625C7.64829 8.625 7.3125 8.28921 7.3125 7.875C7.3125 7.46079 7.64829 7.125 8.0625 7.125C8.47671 7.125 8.8125 7.46079 8.8125 7.875Z" fill="#3E1B86"/>
</svg>
