<svg width="24" height="24" viewBox="0 0 24 24" fill="none" xmlns="http://www.w3.org/2000/svg">
<path fill-rule="evenodd" clip-rule="evenodd" d="M6.16633 6.16632C6.45922 5.87342 6.93409 5.87342 7.22699 6.16632L17.8336 16.7729C18.1265 17.0658 18.1265 17.5407 17.8336 17.8336C17.5407 18.1265 17.0658 18.1265 16.7729 17.8336L6.16633 7.22698C5.87343 6.93408 5.87343 6.45921 6.16633 6.16632Z" fill="#3E1B86"/>
<path fill-rule="evenodd" clip-rule="evenodd" d="M6.16632 17.8336C5.87342 17.5407 5.87342 17.0658 6.16632 16.7729L16.7729 6.16629C17.0658 5.8734 17.5407 5.8734 17.8336 6.16629C18.1265 6.45918 18.1265 6.93406 17.8336 7.22695L7.22698 17.8336C6.93408 18.1264 6.45921 18.1264 6.16632 17.8336Z" fill="#3E1B86"/>
</svg>
