<svg width="24" height="24" viewBox="0 0 24 24" fill="none" xmlns="http://www.w3.org/2000/svg">
<path d="M15 15.25C14.5858 15.25 14.25 15.5858 14.25 16C14.25 16.4142 14.5858 16.75 15 16.75H18C18.4142 16.75 18.75 16.4142 18.75 16C18.75 15.5858 18.4142 15.25 18 15.25H15Z" fill="#3E1B86"/>
<path fill-rule="evenodd" clip-rule="evenodd" d="M8.44523 3.75H15.555C16.9226 3.75 18.0248 3.74992 18.8918 3.86648C19.7919 3.98758 20.5497 4.2464 21.1518 4.84836C21.7537 5.45024 22.0126 6.20812 22.1336 7.10836C22.2501 7.97532 22.2501 9.07766 22.2501 10.4452V13.555C22.2501 14.9225 22.2501 16.0248 22.1336 16.8918C22.0126 17.7918 21.7537 18.5497 21.1518 19.1518C20.5498 19.7536 19.792 20.0125 18.8918 20.1336C18.0248 20.25 16.9225 20.25 15.555 20.25H8.44523C7.07765 20.25 5.97523 20.25 5.10843 20.1336C4.20827 20.0125 3.45039 19.7536 2.84843 19.1518C2.24647 18.5497 1.98764 17.7919 1.86654 16.8918C1.74998 16.0247 1.75006 14.9225 1.75006 13.555V10.4452C1.75006 9.07766 1.74998 7.97536 1.86654 7.10836C1.98764 6.2082 2.24647 5.45032 2.84843 4.84836C3.45031 4.2464 4.20819 3.98758 5.10843 3.86648C5.97539 3.74992 7.07773 3.75 8.44523 3.75ZM5.30823 5.35312C4.57447 5.45179 4.18589 5.63226 3.90909 5.90898C3.63237 6.18578 3.45191 6.57438 3.35323 7.30812C3.28416 7.82194 3.26135 8.44944 3.25377 9.25H20.7464C20.7389 8.44946 20.716 7.82196 20.6469 7.30812C20.5482 6.57436 20.3679 6.18578 20.0911 5.90898C19.8143 5.63226 19.4257 5.4518 18.6919 5.35312C17.9365 5.25156 16.9354 5.25 15.5001 5.25H8.50012C7.06472 5.25 6.06352 5.25156 5.30832 5.35312H5.30823ZM3.25003 13.4999V10.7499H20.7498L20.7501 13.4999C20.7501 14.9353 20.7485 15.9363 20.6469 16.6917C20.5483 17.4255 20.3679 17.8141 20.0911 18.0909C19.8143 18.3677 19.4258 18.548 18.6919 18.6467C17.9365 18.7483 16.9355 18.7498 15.5001 18.7498H8.50014C7.06474 18.7498 6.06354 18.7483 5.30834 18.6467C4.57458 18.548 4.186 18.3677 3.9092 18.0909C3.63248 17.8141 3.45202 17.4255 3.35334 16.6917C3.25177 15.9363 3.25021 14.9352 3.25021 13.4999H3.25003Z" fill="#3E1B86"/>
</svg>
