<svg width="24" height="24" viewBox="0 0 24 24" fill="none" xmlns="http://www.w3.org/2000/svg">
<path fill-rule="evenodd" clip-rule="evenodd" d="M14.634 4.27709C15.0267 4.28108 15.3297 4.28412 15.5966 4.34022C16.6852 4.56874 17.5288 5.43046 17.7342 6.52362C17.7846 6.79174 17.7813 7.09472 17.777 7.48738L17.7754 7.63394C17.7714 8.02668 17.7684 8.32964 17.7124 8.59652C17.4838 9.68512 16.622 10.5288 15.529 10.7341C15.2609 10.7845 14.9579 10.7812 14.5652 10.7769L14.4186 10.7752C14.026 10.7713 13.7229 10.7683 13.4561 10.7122C12.3675 10.4836 11.5239 9.62184 11.3185 8.52864C11.3018 8.44013 11.291 8.34786 11.2842 8.24974H2.50024C2.08602 8.24974 1.75024 7.91396 1.75024 7.49974C1.75024 7.08552 2.08602 6.74974 2.50024 6.74974H11.2988C11.3078 6.64592 11.3209 6.54864 11.3403 6.45576C11.5688 5.36724 12.4306 4.52358 13.5237 4.31816C13.7918 4.26777 14.0947 4.27113 14.4874 4.27543L14.634 4.27709ZM15.2884 5.80819C15.1861 5.78671 15.0454 5.78163 14.5448 5.77632C14.0443 5.771 13.9034 5.77311 13.8009 5.79241C13.3039 5.88577 12.9122 6.26929 12.8084 6.76405C12.7868 6.86632 12.7817 7.00709 12.7764 7.50765C12.7711 8.00827 12.7732 8.14905 12.7925 8.25171C12.8859 8.74859 13.2695 9.14031 13.7642 9.24421C13.8665 9.26569 14.0072 9.27077 14.5078 9.27609C15.0084 9.2814 15.1491 9.27929 15.2518 9.25999C15.7488 9.16655 16.1404 8.78311 16.2443 8.28827C16.2659 8.18601 16.2709 8.04531 16.2763 7.54475C16.2815 7.04413 16.2795 6.90335 16.2602 6.80061C16.1667 6.30373 15.7832 5.91209 15.2884 5.80819Z" fill="#3E1B86"/>
<path d="M21.5 8.25C21.9142 8.25 22.25 7.91422 22.25 7.5C22.25 7.08578 21.9142 6.75 21.5 6.75H19.5C19.0858 6.75 18.75 7.08578 18.75 7.5C18.75 7.91422 19.0858 8.25 19.5 8.25H21.5Z" fill="#3E1B86"/>
<path d="M2.50037 17.25C2.08615 17.25 1.75037 16.9142 1.75037 16.5C1.75037 16.0858 2.08615 15.75 2.50037 15.75H4.49991C4.91413 15.75 5.24991 16.0858 5.24991 16.5C5.24991 16.9142 4.91413 17.25 4.49991 17.25H2.50037Z" fill="#3E1B86"/>
<path fill-rule="evenodd" clip-rule="evenodd" d="M21.5 15.75H12.7642C12.7574 15.6713 12.7476 15.5963 12.7339 15.5238C12.5285 14.4306 11.6849 13.5689 10.5963 13.3404C10.3294 13.2843 10.0264 13.2813 9.63375 13.2772L9.48718 13.2757C9.09444 13.2714 8.79148 13.268 8.52342 13.3184C7.4303 13.5238 6.5685 14.3675 6.34002 15.456C6.28401 15.7229 6.28096 16.0259 6.27698 16.4186L6.27542 16.5652C6.27104 16.9578 6.26768 17.2609 6.31807 17.5288C6.52347 18.622 7.36721 19.4838 8.45567 19.7124C8.72263 19.7685 9.02559 19.7715 9.41825 19.7754L9.56481 19.7771C9.95755 19.7813 10.2605 19.7847 10.5286 19.7343C11.6217 19.5289 12.4835 18.6853 12.712 17.5967C12.7348 17.4883 12.7488 17.3739 12.7577 17.25H21.4999C21.914 17.25 22.2499 16.9142 22.2499 16.5C22.2499 16.0858 21.914 15.75 21.4999 15.75L21.5 15.75ZM9.54456 14.7764C10.0451 14.7817 10.1858 14.7868 10.2882 14.8084C10.7829 14.9121 11.1664 15.3038 11.2599 15.8007C11.2792 15.9035 11.2812 16.0442 11.276 16.5449C11.2707 17.0454 11.2656 17.1861 11.244 17.2885C11.1401 17.7832 10.7485 18.1667 10.2515 18.26C10.1489 18.2793 10.0081 18.2815 9.50746 18.2763C9.00692 18.271 8.86622 18.2657 8.76394 18.2443C8.26918 18.1404 7.88566 17.7488 7.7923 17.2518C7.773 17.1492 7.77082 17.0084 7.77613 16.5078C7.78144 16.0071 7.78652 15.8664 7.808 15.7642C7.91191 15.2695 8.30362 14.886 8.8005 14.7925C8.90316 14.7732 9.04402 14.7711 9.54456 14.7764Z" fill="#3E1B86"/>
</svg>
