<svg width="24" height="24" viewBox="0 0 24 24" fill="none" xmlns="http://www.w3.org/2000/svg">
<path fill-rule="evenodd" clip-rule="evenodd" d="M10.7197 17.0303C10.4268 16.7374 10.4268 16.2626 10.7197 15.9697L13.8055 12.8839C14.2936 12.3957 14.2936 11.6043 13.8055 11.1161L10.7197 8.03033C10.4268 7.73744 10.4268 7.26256 10.7197 6.96967C11.0126 6.67678 11.4874 6.67678 11.7803 6.96967L14.8661 10.0555C15.9401 11.1294 15.9401 12.8706 14.8661 13.9445L11.7803 17.0303C11.4874 17.3232 11.0126 17.3232 10.7197 17.0303Z" fill="#3E1B86"/>
<path fill-rule="evenodd" clip-rule="evenodd" d="M3.75 12C3.75 11.5858 4.08579 11.25 4.5 11.25L14 11.25C14.4142 11.25 14.75 11.5858 14.75 12C14.75 12.4142 14.4142 12.75 14 12.75L4.5 12.75C4.08579 12.75 3.75 12.4142 3.75 12Z" fill="#3E1B86"/>
<g clip-path="url(#clip0_20_1059)">
<path d="M16.7577 3.80309C16.1694 3.74981 15.4401 3.74981 14.5359 3.74981L12.7463 3.74981L12.7463 5.24998L14.4998 5.24998C15.4483 5.24998 16.1095 5.25068 16.622 5.29717C17.1244 5.34271 17.4099 5.4274 17.6249 5.55139C17.9669 5.74889 18.251 6.03295 18.4485 6.37499C18.5725 6.58991 18.6571 6.87547 18.7027 7.37781C18.7492 7.89041 18.7499 8.55156 18.7499 9.50001L18.7499 13.5C18.7499 14.9353 18.7483 15.9365 18.6468 16.6918C18.5481 17.4255 18.3677 17.8141 18.0909 18.0909C17.8141 18.3677 17.4256 18.5481 16.6918 18.6468C15.9364 18.7484 14.9354 18.7499 13.5 18.7499L12.7467 18.7499L12.7467 20.25L13.5551 20.25L13.5578 20.25C14.924 20.25 16.0254 20.25 16.8919 20.1335C17.792 20.0124 18.5498 19.7536 19.1519 19.1516C19.7537 18.5497 20.0126 17.7918 20.1337 16.8916C20.2501 16.0246 20.2501 14.9223 20.2501 13.5549L20.2501 13.5548L20.2501 9.46404C20.2501 8.55982 20.2501 7.83051 20.1969 7.24223C20.1419 6.63584 20.0255 6.106 19.7477 5.62482C19.4187 5.05474 18.9452 4.58129 18.3751 4.25224C17.8938 3.97442 17.364 3.85809 16.7577 3.80309Z" fill="#3E1B86"/>
</g>
<path fill-rule="evenodd" clip-rule="evenodd" d="M12 19.5C12 19.0858 12.3358 18.75 12.75 18.75L14 18.75C14.4142 18.75 14.75 19.0858 14.75 19.5C14.75 19.9142 14.4142 20.25 14 20.25L12.75 20.25C12.3358 20.25 12 19.9142 12 19.5Z" fill="#3E1B86"/>
<path fill-rule="evenodd" clip-rule="evenodd" d="M12 4.5C12 4.08579 12.3358 3.75 12.75 3.75L14 3.75C14.4142 3.75 14.75 4.08579 14.75 4.5C14.75 4.91421 14.4142 5.25 14 5.25L12.75 5.25C12.3358 5.25 12 4.91421 12 4.5Z" fill="#3E1B86"/>
<defs>
<clipPath id="clip0_20_1059">
<rect width="16.5" height="7.5" fill="white" transform="translate(12.75 20.25) rotate(-90)"/>
</clipPath>
</defs>
</svg>
