<svg width="24" height="24" viewBox="0 0 24 24" fill="none" xmlns="http://www.w3.org/2000/svg">
<path fill-rule="evenodd" clip-rule="evenodd" d="M4.71118 5.49174C3.91255 4.33065 4.74379 2.75 6.15303 2.75H7.53262C8.10876 2.75 8.64798 3.03357 8.97448 3.50826L19.2918 18.5083C20.0904 19.6694 19.2592 21.25 17.85 21.25H16.4704C15.8942 21.25 15.355 20.9664 15.0285 20.4917L4.71118 5.49174ZM6.15303 4.25C5.95171 4.25 5.83296 4.47581 5.94705 4.64168L16.2644 19.6417C16.311 19.7095 16.3881 19.75 16.4704 19.75H17.85C18.0513 19.75 18.17 19.5242 18.0559 19.3583L7.7386 4.35832C7.69196 4.29051 7.61493 4.25 7.53262 4.25H6.15303Z" fill="#3E1B86"/>
<path fill-rule="evenodd" clip-rule="evenodd" d="M19.3221 2.91605C19.6446 3.17597 19.6954 3.64812 19.4355 3.97064L13.9113 10.8255C13.6514 11.148 13.1792 11.1987 12.8567 10.9388C12.5342 10.6789 12.4834 10.2068 12.7434 9.88425L18.2675 3.02941C18.5275 2.70689 18.9996 2.65614 19.3221 2.91605ZM10.9446 13.3116C11.2671 13.5715 11.3178 14.0436 11.0579 14.3662L5.73549 20.9706C5.47558 21.2932 5.00342 21.3439 4.6809 21.084C4.35838 20.8241 4.30763 20.3519 4.56754 20.0294L9.88998 13.4249C10.1499 13.1024 10.622 13.0517 10.9446 13.3116Z" fill="#3E1B86"/>
</svg>
