<svg width="24" height="24" viewBox="0 0 24 24" fill="none" xmlns="http://www.w3.org/2000/svg">
<path fill-rule="evenodd" clip-rule="evenodd" d="M12 3.25C7.16751 3.25 3.25 7.16751 3.25 12C3.25 16.8325 7.16751 20.75 12 20.75C16.8325 20.75 20.75 16.8325 20.75 12C20.75 7.16751 16.8325 3.25 12 3.25ZM1.75 12C1.75 6.33908 6.33908 1.75 12 1.75C17.6609 1.75 22.25 6.33908 22.25 12C22.25 17.6609 17.6609 22.25 12 22.25C6.33908 22.25 1.75 17.6609 1.75 12Z" fill="#3E1B86"/>
<path d="M11.51 13.4057C11.4446 12.827 11.3793 12.2297 11.314 11.6137C11.258 10.9883 11.2113 10.3723 11.174 9.76565C11.1366 9.14965 11.118 8.56632 11.118 8.01565V6.99365H12.938V8.01565C12.938 8.58499 12.9193 9.18232 12.882 9.80765C12.854 10.433 12.8073 11.0537 12.742 11.6697C12.686 12.2857 12.6206 12.8643 12.546 13.4057H11.51ZM12 17.0037C11.664 17.0037 11.4026 16.9057 11.216 16.7097C11.0386 16.5137 10.95 16.2383 10.95 15.8837C10.95 15.557 11.0433 15.291 11.23 15.0857C11.426 14.871 11.6826 14.7637 12 14.7637C12.336 14.7637 12.5926 14.8617 12.77 15.0577C12.9566 15.2443 13.05 15.5197 13.05 15.8837C13.05 16.2103 12.952 16.481 12.756 16.6957C12.5693 16.901 12.3173 17.0037 12 17.0037Z" fill="#3E1B86"/>
</svg>
