<svg width="24" height="24" viewBox="0 0 24 24" fill="none" xmlns="http://www.w3.org/2000/svg">
<path d="M11.9996 1.74976C17.6604 1.74976 22.2495 6.33899 22.2496 11.9998C22.2496 17.6607 17.6606 22.2498 11.9996 22.2498C6.33886 22.2496 1.74963 17.6606 1.74963 11.9998C1.74981 6.3391 6.33897 1.74993 11.9996 1.74976ZM11.153 10.0955V17.4734H12.8756V10.0955H11.153ZM11.9928 6.52515C11.657 6.52521 11.3909 6.61882 11.1949 6.80542C10.9992 6.99203 10.901 7.23449 10.901 7.53296C10.901 7.85029 10.9946 8.09781 11.1813 8.27515C11.3772 8.44303 11.6477 8.52704 11.9928 8.5271C12.3381 8.5271 12.6093 8.43349 12.8053 8.24683C13.0012 8.06019 13.0992 7.8222 13.0992 7.53296C13.0992 7.20635 13.0013 6.95875 12.8053 6.79077C12.6186 6.61349 12.3474 6.52515 11.9928 6.52515Z" fill="#3E1B86"/>
</svg>
