<svg width="24" height="24" viewBox="0 0 24 24" fill="none" xmlns="http://www.w3.org/2000/svg">
<path d="M6.75 16.75C6.33578 16.75 6 17.0858 6 17.5C6 17.9142 6.33578 18.25 6.75 18.25H17.25C17.6642 18.25 18 17.9142 18 17.5C18 17.0858 17.6642 16.75 17.25 16.75H6.75Z" fill="#3E1B86"/>
<path fill-rule="evenodd" clip-rule="evenodd" d="M12 1.97632C11.3287 1.97632 10.7369 2.19726 10.1215 2.54944C9.53154 2.8871 8.85912 3.38264 8.03206 3.99202L4.35546 6.70102C3.29506 7.48148 2.55742 8.02438 2.15306 8.82462C1.7487 9.62486 1.74924 10.5407 1.74994 11.8574L1.75001 15.5548C1.75001 16.9224 1.75001 18.0246 1.86658 18.8916C1.98759 19.7917 2.24642 20.5496 2.84838 21.1514C3.45026 21.7535 4.20814 22.0124 5.10838 22.1334C5.97534 22.2499 7.07768 22.2499 8.44518 22.2499H15.555C16.9226 22.2499 18.0248 22.2499 18.8918 22.1334C19.7919 22.0124 20.5497 21.7535 21.1518 21.1514C21.7537 20.5495 22.0126 19.7917 22.1336 18.8916C22.2501 18.0247 22.2501 16.9224 22.2501 15.5548L22.2501 11.8574C22.2508 10.5407 22.2514 9.62482 21.8471 8.82462C21.4426 8.02438 20.7051 7.4815 19.6447 6.70102L15.9681 3.99202C15.1411 3.38264 14.4686 2.8871 13.8787 2.54944C13.2633 2.19726 12.6714 1.97632 12.0001 1.97632H12ZM8.88578 5.22632C9.75766 4.5839 10.3609 4.14092 10.8666 3.8514C11.3555 3.57156 11.6855 3.4764 12.0001 3.4764C12.3147 3.4764 12.6447 3.57155 13.1335 3.8514C13.6393 4.14086 14.2425 4.5839 15.1144 5.22632L18.6144 7.80532C19.873 8.73274 20.2854 9.06008 20.5083 9.50118C20.7312 9.9422 20.7501 10.4684 20.7501 12.0318V15.5C20.7501 16.9354 20.7485 17.9364 20.647 18.6918C20.5483 19.4255 20.3679 19.8141 20.0911 20.0909C19.8143 20.3676 19.4258 20.5481 18.692 20.6467C17.9366 20.7483 16.9355 20.7499 15.5002 20.7499H8.50015C7.06475 20.7499 6.06375 20.7483 5.30835 20.6467C4.57459 20.5481 4.18601 20.3676 3.90921 20.0909C3.63249 19.8141 3.45203 19.4255 3.35335 18.6918C3.25179 17.9364 3.25023 16.9353 3.25023 15.5V12.0318C3.25023 10.4684 3.26921 9.94218 3.49203 9.50118C3.71493 9.06008 4.12735 8.73274 5.38593 7.80532L8.88578 5.22632Z" fill="#3E1B86"/>
</svg>
