<svg width="24" height="24" viewBox="0 0 24 24" fill="none" xmlns="http://www.w3.org/2000/svg">
<path fill-rule="evenodd" clip-rule="evenodd" d="M8.5 3.75C6.38439 3.75 4.65993 4.27941 3.46967 5.46967C2.27941 6.65993 1.75 8.38439 1.75 10.5V13.5C1.75 15.6156 2.27941 17.3401 3.46967 18.5303C4.65993 19.7206 6.38439 20.25 8.5 20.25H15.5C17.6156 20.25 19.3401 19.7206 20.5303 18.5303C21.7206 17.3401 22.25 15.6156 22.25 13.5V10.5C22.25 8.38439 21.7206 6.65993 20.5303 5.46967C19.3401 4.27941 17.6156 3.75 15.5 3.75H8.5ZM4.53033 6.53033C3.72059 7.34007 3.25 8.61561 3.25 10.5V13.5C3.25 15.3844 3.72059 16.6599 4.53033 17.4697C5.34007 18.2794 6.61561 18.75 8.5 18.75H15.5C17.3844 18.75 18.6599 18.2794 19.4697 17.4697C20.2794 16.6599 20.75 15.3844 20.75 13.5V10.5C20.75 8.61561 20.2794 7.34007 19.4697 6.53033C18.6599 5.72059 17.3844 5.25 15.5 5.25H8.5C6.61561 5.25 5.34007 5.72059 4.53033 6.53033Z" fill="#3E1B86"/>
<path fill-rule="evenodd" clip-rule="evenodd" d="M13.3659 9.74335C12.8434 9.35047 12.3609 8.98773 11.9482 8.75812C11.5282 8.52453 10.8707 8.2492 10.1505 8.54357C10.0679 8.57735 9.98779 8.61656 9.91083 8.66083C9.2294 9.05314 9.04874 9.74918 8.98178 10.2263C8.91645 10.6918 8.91654 11.2921 8.91663 11.9379L8.91664 12.0128L8.91663 12.0867C8.91654 12.7238 8.91645 13.3173 8.98127 13.7784C9.04801 14.2533 9.22768 14.9414 9.90079 15.334C9.97717 15.3786 10.0571 15.4183 10.1386 15.4522C10.8506 15.7486 11.5044 15.4852 11.9251 15.2581C12.3363 15.036 12.8171 14.6837 13.3361 14.3033L13.3953 14.2599L13.4457 14.223C13.8027 13.9615 14.1578 13.7015 14.4175 13.4504C14.7058 13.1716 15.0409 12.7515 15.0794 12.146L15.0808 11.9213C15.0499 11.3152 14.72 10.8905 14.4351 10.6082C14.1786 10.354 13.8267 10.0896 13.4729 9.82384L13.423 9.7863L13.3659 9.74335ZM11.3 9.92327C11.6281 10.1058 12.0435 10.4173 12.6218 10.8521C13.0246 11.1549 13.3083 11.3687 13.4966 11.5553C13.6816 11.7387 13.7429 11.8657 13.7491 11.9885C13.7504 12.0129 13.7502 12.0373 13.7487 12.0616C13.7409 12.1844 13.6781 12.3107 13.4907 12.4918C13.3002 12.6761 13.0138 12.8865 12.6072 13.1844C12.0312 13.6065 11.6178 13.9087 11.2916 14.0848C10.9635 14.262 10.785 14.2771 10.6511 14.2213C10.624 14.21 10.5976 14.1969 10.5723 14.1821C10.4472 14.1092 10.353 13.9586 10.3016 13.5929C10.2505 13.2292 10.25 12.7212 10.25 12.0128C10.25 11.295 10.2505 10.78 10.3022 10.4116C10.3542 10.0408 10.4495 9.8892 10.5755 9.81665C10.6011 9.80194 10.6277 9.78894 10.655 9.77776C10.7898 9.72266 10.9697 9.73959 11.3 9.92327Z" fill="#3E1B86"/>
</svg>
