<svg width="24" height="24" viewBox="0 0 24 24" fill="none" xmlns="http://www.w3.org/2000/svg">
<path fill-rule="evenodd" clip-rule="evenodd" d="M12 3.25C7.16751 3.25 3.25 7.16751 3.25 12C3.25 16.8325 7.16751 20.75 12 20.75C16.8325 20.75 20.75 16.8325 20.75 12C20.75 7.16751 16.8325 3.25 12 3.25ZM1.75 12C1.75 6.33908 6.33908 1.75 12 1.75C17.6609 1.75 22.25 6.33908 22.25 12C22.25 17.6609 17.6609 22.25 12 22.25C6.33908 22.25 1.75 17.6609 1.75 12Z" fill="#3E1B86"/>
<path fill-rule="evenodd" clip-rule="evenodd" d="M17.9622 7.697C18.2884 7.95229 18.3459 8.42367 18.0906 8.74986L12.8827 15.4044C11.8653 16.7045 9.93981 16.8214 8.77251 15.6541L5.96967 12.8513C5.67678 12.5584 5.67678 12.0835 5.96967 11.7906C6.26256 11.4977 6.73744 11.4977 7.03033 11.7906L9.83317 14.5935C10.3638 15.1241 11.239 15.0709 11.7014 14.48L16.9094 7.8254C17.1647 7.4992 17.636 7.44172 17.9622 7.697Z" fill="#3E1B86"/>
</svg>
