<svg width="24" height="24" viewBox="0 0 24 24" fill="none" xmlns="http://www.w3.org/2000/svg">
<path fill-rule="evenodd" clip-rule="evenodd" d="M20.2502 14.5357C20.2502 15.4399 20.2502 16.1692 20.1969 16.7575C20.1419 17.3638 20.0256 17.8936 19.7478 18.3749C19.4187 18.945 18.9453 19.4184 18.3752 19.7475C17.894 20.0253 17.3642 20.1416 16.7578 20.1966C16.1695 20.2499 15.4402 20.2499 14.536 20.2499H10.4452C9.07767 20.2499 7.97536 20.2499 7.10836 20.1334C6.2082 20.0124 5.45032 19.7535 4.84836 19.1516C4.2464 18.5496 3.98758 17.7918 3.86648 16.8916C3.75 16.0252 3.75 13.5576 3.75 13.5576V10.4421C3.75 9.07586 3.75 7.9745 3.86648 7.10804C3.98758 6.20788 4.2464 5.45008 4.84836 4.84804C5.45032 4.24616 6.2082 3.98726 7.10836 3.86624C7.97536 3.74976 9.07767 3.74976 10.4452 3.74976H14.536C15.4402 3.74976 16.1695 3.74976 16.7578 3.80304C17.3642 3.85804 17.894 3.97436 18.3752 4.25218C18.9453 4.58124 19.4187 5.05468 19.7478 5.62476C20.0256 6.10608 20.1419 6.63586 20.1969 7.24218C20.2502 7.83046 20.2502 8.55976 20.2502 9.46398V14.5357ZM5.35319 16.6915C5.25163 15.9361 5.25007 14.9351 5.25007 13.4997V10.4999C5.25007 9.06455 5.25163 8.06355 5.35319 7.30815C5.45187 6.57433 5.63233 6.18581 5.90905 5.90901C6.18585 5.63221 6.57445 5.45183 7.30819 5.35315C8.06351 5.25158 9.06467 5.25002 10.5 5.25002H14.5C15.4484 5.25002 16.1096 5.25073 16.6222 5.29721C17.1245 5.34276 17.4101 5.42745 17.625 5.55143C17.9671 5.74893 18.2511 6.03299 18.4486 6.37503C18.5726 6.58995 18.6573 6.87549 18.7028 7.37785C18.7493 7.89043 18.75 8.55161 18.75 9.50005V14.4996C18.75 15.448 18.7493 16.1092 18.7028 16.6218C18.6573 17.1242 18.5726 17.4097 18.4486 17.6246C18.2511 17.9667 17.9671 18.2507 17.625 18.4482C17.4101 18.5722 17.1245 18.6569 16.6222 18.7024C16.1096 18.7489 15.4484 18.7496 14.5 18.7496H10.5C9.06467 18.7496 8.06351 18.7481 7.30819 18.6465C6.57445 18.5478 6.18585 18.3674 5.90905 18.0906C5.63233 17.8138 5.45187 17.4253 5.35319 16.6915Z" fill="#3E1B86"/>
<path d="M12.75 7.49998C12.75 7.0858 12.4142 6.75 12 6.75C11.5858 6.75 11.25 7.0858 11.25 7.49998V11.472C11.25 11.6469 11.2499 11.8252 11.2643 11.9797C11.2808 12.1568 11.3197 12.355 11.4275 12.5563C11.5353 12.7578 11.6785 12.9 11.8168 13.012C11.9374 13.1097 12.0858 13.2085 12.2313 13.3056L14.33 14.87C14.6746 15.0997 15.1402 15.0146 15.37 14.67C15.5997 14.3254 15.5146 13.8597 15.17 13.63L13.0839 12.0712C12.909 11.9546 12.8206 11.8948 12.7611 11.8466L12.7582 11.8442L12.7577 11.8404C12.7507 11.7642 12.7499 11.6574 12.7499 11.4472L12.75 7.49998Z" fill="#3E1B86"/>
</svg>
