<svg width="24" height="24" viewBox="0 0 24 24" fill="none" xmlns="http://www.w3.org/2000/svg">
<path fill-rule="evenodd" clip-rule="evenodd" d="M12 3.25C7.16751 3.25 3.25 7.16751 3.25 12C3.25 16.8325 7.16751 20.75 12 20.75C16.8325 20.75 20.75 16.8325 20.75 12C20.75 7.16751 16.8325 3.25 12 3.25ZM1.75 12C1.75 6.33908 6.33908 1.75 12 1.75C17.6609 1.75 22.25 6.33908 22.25 12C22.25 17.6609 17.6609 22.25 12 22.25C6.33908 22.25 1.75 17.6609 1.75 12Z" fill="#3E1B86"/>
<path d="M11.1531 17.4729V10.0949H12.8751V17.4729H11.1531ZM11.9931 8.5269C11.6478 8.5269 11.3771 8.4429 11.1811 8.2749C10.9945 8.09757 10.9011 7.85024 10.9011 7.5329C10.9011 7.23424 10.9991 6.99157 11.1951 6.8049C11.3911 6.61824 11.6571 6.5249 11.9931 6.5249C12.3478 6.5249 12.6185 6.61357 12.8051 6.7909C13.0011 6.9589 13.0991 7.20624 13.0991 7.5329C13.0991 7.82224 13.0011 8.06024 12.8051 8.2469C12.6091 8.43357 12.3385 8.5269 11.9931 8.5269Z" fill="#3E1B86"/>
</svg>
