<svg width="24" height="24" viewBox="0 0 24 24" fill="none" xmlns="http://www.w3.org/2000/svg">
<path d="M11.9996 1.74976C17.6604 1.74976 22.2495 6.33899 22.2496 11.9998C22.2496 17.6607 17.6606 22.2498 11.9996 22.2498C6.33886 22.2496 1.74963 17.6606 1.74963 11.9998C1.74981 6.3391 6.33897 1.74993 11.9996 1.74976ZM11.9996 14.7634C11.6825 14.7635 11.426 14.8712 11.2301 15.0857C11.0435 15.291 10.9499 15.557 10.9498 15.8835C10.9498 16.2382 11.0391 16.5137 11.2164 16.7097C11.403 16.9055 11.6639 17.0036 11.9996 17.0037C12.3168 17.0037 12.5689 16.9011 12.7555 16.696C12.9515 16.4814 13.0504 16.2102 13.0504 15.8835C13.0504 15.5197 12.9568 15.244 12.7701 15.0574C12.5928 14.8615 12.3355 14.7634 11.9996 14.7634ZM11.1178 6.9939V8.01538C11.1178 8.56592 11.1371 9.14954 11.1744 9.76538C11.2118 10.372 11.2581 10.9887 11.3141 11.614C11.3794 12.2299 11.445 12.8274 11.5104 13.406H12.5455C12.6202 12.8647 12.6858 12.2857 12.7418 11.6697C12.8071 11.0537 12.8544 10.4327 12.8824 9.80737C12.9198 9.18222 12.9381 8.58457 12.9381 8.01538V6.9939H11.1178Z" fill="#3E1B86"/>
</svg>
