<svg width="24" height="24" viewBox="0 0 24 24" fill="none" xmlns="http://www.w3.org/2000/svg">
<path fill-rule="evenodd" clip-rule="evenodd" d="M4.71082 12.0393C4.71082 11.6251 5.0466 11.2893 5.46082 11.2893L14.9608 11.2893C15.375 11.2893 15.7108 11.6251 15.7108 12.0393C15.7108 12.4535 15.375 12.7893 14.9608 12.7893L5.46082 12.7893C5.0466 12.7893 4.71082 12.4535 4.71082 12.0393Z" fill="#3E1B86"/>
<path fill-rule="evenodd" clip-rule="evenodd" d="M5.65542 11.1554C5.16727 11.6436 5.16727 12.435 5.65542 12.9232L8.74121 16.009C9.0341 16.3019 9.0341 16.7767 8.74121 17.0696C8.44832 17.3625 7.97344 17.3625 7.68055 17.0696L4.59476 13.9838C3.52082 12.9099 3.52082 11.1687 4.59476 10.0948L7.68055 7.00898C7.97344 6.71608 8.44832 6.71608 8.74121 7.00898C9.0341 7.30187 9.0341 7.77674 8.74121 8.06964L5.65542 11.1554Z" fill="#3E1B86"/>
<g clip-path="url(#clip0_20_1080)">
<path d="M16.7185 3.8424C16.1303 3.78912 15.401 3.78912 14.4967 3.78912L12.7072 3.78912L12.7072 5.28928L14.4607 5.28928C15.4091 5.28928 16.0703 5.28999 16.5829 5.33647C17.0852 5.38201 17.3708 5.46671 17.5857 5.59069C17.9277 5.78819 18.2118 6.07225 18.4093 6.41429C18.5333 6.62921 18.618 6.91477 18.6635 7.41711C18.71 7.92971 18.7107 8.59087 18.7107 9.53931L18.7107 13.5393C18.7107 14.9746 18.7091 15.9758 18.6076 16.7311C18.5089 17.4649 18.3285 17.8535 18.0517 18.1303C17.7749 18.407 17.3864 18.5874 16.6526 18.6861C15.8972 18.7877 14.8962 18.7892 13.4608 18.7892L12.7075 18.7892L12.7075 20.2893L13.5159 20.2893L13.5186 20.2893C14.8849 20.2893 15.9862 20.2893 16.8527 20.1728C17.7528 20.0517 18.5106 19.7929 19.1127 19.1909C19.7146 18.589 19.9735 17.8311 20.0945 16.9309C20.211 16.0639 20.211 14.9617 20.211 13.5942L20.211 13.5941L20.211 9.50334C20.211 8.59912 20.211 7.86982 20.1577 7.28154C20.1027 6.67514 19.9864 6.1453 19.7085 5.66412C19.3795 5.09404 18.906 4.6206 18.336 4.29154C17.8546 4.01373 17.3249 3.8974 16.7185 3.8424Z" fill="#3E1B86"/>
</g>
<path fill-rule="evenodd" clip-rule="evenodd" d="M11.9608 19.5393C11.9608 19.1251 12.2966 18.7893 12.7108 18.7893L13.9608 18.7893C14.375 18.7893 14.7108 19.1251 14.7108 19.5393C14.7108 19.9535 14.375 20.2893 13.9608 20.2893L12.7108 20.2893C12.2966 20.2893 11.9608 19.9535 11.9608 19.5393Z" fill="#3E1B86"/>
<path fill-rule="evenodd" clip-rule="evenodd" d="M11.9608 4.53931C11.9608 4.12509 12.2966 3.78931 12.7108 3.78931L13.9608 3.78931C14.375 3.78931 14.7108 4.12509 14.7108 4.53931C14.7108 4.95352 14.375 5.28931 13.9608 5.28931L12.7108 5.28931C12.2966 5.28931 11.9608 4.95352 11.9608 4.53931Z" fill="#3E1B86"/>
<defs>
<clipPath id="clip0_20_1080">
<rect width="16.5" height="7.5" fill="white" transform="translate(12.7108 20.2893) rotate(-90)"/>
</clipPath>
</defs>
</svg>
