<svg width="24" height="24" viewBox="0 0 24 24" fill="none" xmlns="http://www.w3.org/2000/svg">
<path fill-rule="evenodd" clip-rule="evenodd" d="M7.80631 4.27935C9.59307 0.920233 14.4068 0.920228 16.1936 4.27935L22.0353 15.2617C23.7182 18.4255 21.4252 22.2424 17.8416 22.2424H6.15828C2.57472 22.2424 0.281744 18.4255 1.96463 15.2617L7.80631 4.27935ZM14.8693 4.98377C13.6468 2.68542 10.3531 2.68542 9.13062 4.98377L3.28894 15.9661C2.13749 18.1308 3.70637 20.7424 6.15828 20.7424H17.8416C20.2935 20.7424 21.8624 18.1308 20.711 15.9661L14.8693 4.98377Z" fill="#3E1B86"/>
<path d="M11.4699 13.5485C11.4046 12.9698 11.3392 12.3725 11.2739 11.7565C11.2179 11.1311 11.1712 10.5151 11.1339 9.90847C11.0966 9.29247 11.0779 8.70914 11.0779 8.15847V7.13647H12.8979V8.15847C12.8979 8.72781 12.8792 9.32514 12.8419 9.95048C12.8139 10.5758 12.7672 11.1965 12.7019 11.8125C12.6459 12.4285 12.5806 13.0071 12.5059 13.5485H11.4699ZM11.9599 17.1465C11.6239 17.1465 11.3626 17.0485 11.1759 16.8525C10.9986 16.6565 10.9099 16.3811 10.9099 16.0265C10.9099 15.6998 11.0032 15.4338 11.1899 15.2285C11.3859 15.0138 11.6426 14.9065 11.9599 14.9065C12.2959 14.9065 12.5526 15.0045 12.7299 15.2005C12.9166 15.3871 13.0099 15.6625 13.0099 16.0265C13.0099 16.3531 12.9119 16.6238 12.7159 16.8385C12.5292 17.0438 12.2772 17.1465 11.9599 17.1465Z" fill="#3E1B86"/>
</svg>
