<svg width="24" height="24" viewBox="0 0 24 24" fill="none" xmlns="http://www.w3.org/2000/svg">
<path fill-rule="evenodd" clip-rule="evenodd" d="M9.8664 3.43882C10.3178 2.70664 11.1066 2.25 11.9672 2.25C12.8277 2.25 13.6166 2.70664 14.068 3.4389L14.906 4.79796C15.5199 5.79358 15.8269 6.2914 16.2838 6.6332C16.7406 6.975 17.3048 7.12898 18.4332 7.43696L19.8679 7.8286C20.6967 8.05564 21.3421 8.70016 21.5982 9.52016C21.8547 10.3386 21.6906 11.24 21.1642 11.9108L21.1534 11.9244L20.3768 12.8244C19.6462 13.6708 19.2809 14.094 19.0927 14.6073C18.9044 15.1205 18.9094 15.6794 18.9193 16.7977L18.9394 19.0641C18.9812 19.9141 18.6084 20.7401 17.9282 21.2537C17.2406 21.7746 16.3391 21.8934 15.5434 21.5732L15.5413 21.5723L14.2247 21.0377C13.1103 20.5852 12.5531 20.3589 11.9671 20.3589C11.3812 20.3589 10.824 20.5852 9.70953 21.0377L8.39297 21.5723L8.39078 21.5732C7.59524 21.8934 6.6939 21.7746 6.00618 21.2538C5.32094 20.7366 4.94758 19.9023 4.99578 19.0456L5.09336 17.2866C5.15539 16.1688 5.18641 15.6099 5.02188 15.088C4.85734 14.5662 4.51142 14.126 3.81954 13.2459L2.77032 11.9113C2.24392 11.2406 2.07954 10.3388 2.33594 9.52033C2.59212 8.70033 3.2368 8.05603 4.06554 7.82893L5.50094 7.43713C6.62938 7.12917 7.19352 6.97517 7.65034 6.63337C8.10714 6.29149 8.41416 5.79377 9.02808 4.79813L9.8664 3.43882ZM11.9672 3.75C11.6459 3.75 11.3316 3.9207 11.1433 4.22602L9.9944 6.08914C9.3805 7.08476 9.07354 7.58258 8.61666 7.92438C8.15986 8.26618 7.59564 8.42016 6.46726 8.72814L4.46226 9.27548C4.1464 9.36204 3.87796 9.61516 3.76796 9.96758C3.65843 10.3168 3.73054 10.7045 3.95007 10.9843L5.34889 12.7637C6.04077 13.6438 6.38671 14.0838 6.55123 14.6057C6.71569 15.1276 6.68475 15.6864 6.62272 16.8043L6.49373 19.1285C6.47264 19.5019 6.6367 19.8502 6.91037 20.0566L6.91178 20.0577C7.17858 20.26 7.52326 20.3051 7.83022 20.1819L9.70976 19.4186C10.8241 18.9661 11.3813 18.7398 11.9674 18.7398C12.5532 18.7398 13.1104 18.9661 14.225 19.4186L16.1037 20.1816C16.4107 20.3048 16.7561 20.26 17.0229 20.0576L17.0243 20.0566C17.2979 19.8502 17.462 19.5027 17.4411 19.1293L17.44 19.1114L17.4145 16.2456C17.4047 15.1274 17.3997 14.5683 17.5879 14.0552C17.7762 13.542 18.1415 13.1186 18.872 12.2722L19.9937 10.9726C20.2061 10.6937 20.275 10.3128 20.167 9.96842C20.0569 9.61592 19.7883 9.36202 19.4725 9.27546L17.4673 8.72812C16.339 8.42016 15.7748 8.26616 15.3179 7.92436C14.8611 7.58256 14.554 7.08476 13.9401 6.08912L12.7913 4.22608C12.6031 3.92076 12.2888 3.74998 11.9674 3.74998L11.9672 3.75Z" fill="#3E1B86"/>
</svg>
