<svg width="24" height="24" viewBox="0 0 24 24" fill="none" xmlns="http://www.w3.org/2000/svg">
<path d="M11.9996 1.74976C17.6604 1.74976 22.2495 6.33899 22.2496 11.9998C22.2496 17.6607 17.6606 22.2498 11.9996 22.2498C6.33886 22.2496 1.74963 17.6606 1.74963 11.9998C1.74981 6.3391 6.33897 1.74993 11.9996 1.74976ZM17.9625 7.69702C17.6365 7.44187 17.1652 7.49919 16.9098 7.82495L11.7018 14.4802C11.2393 15.0711 10.3632 15.1241 9.83264 14.5935L7.02991 11.7908C6.73701 11.498 6.26222 11.4979 5.96936 11.7908C5.67671 12.0836 5.67664 12.5585 5.96936 12.8513L8.77209 15.6541C9.93939 16.8213 11.865 16.7041 12.8824 15.4041L18.0905 8.74976C18.3457 8.42364 18.2885 7.95235 17.9625 7.69702Z" fill="#3E1B86"/>
</svg>
