<svg width="24" height="24" viewBox="0 0 24 24" fill="none" xmlns="http://www.w3.org/2000/svg">
<path d="M11.5 3.75C15.7802 3.75 19.25 7.21979 19.25 11.5C19.25 13.37 18.5872 15.085 17.4844 16.4238L20.0303 18.9697C20.3232 19.2626 20.3232 19.7374 20.0303 20.0303C19.7374 20.3232 19.2626 20.3232 18.9697 20.0303L16.4238 17.4844C15.085 18.5872 13.37 19.25 11.5 19.25C7.21979 19.25 3.75 15.7802 3.75 11.5C3.75 7.21979 7.21979 3.75 11.5 3.75ZM11.5 5.25C8.04822 5.25 5.25 8.04822 5.25 11.5C5.25 14.9518 8.04822 17.75 11.5 17.75C14.9518 17.75 17.75 14.9518 17.75 11.5C17.75 8.04822 14.9518 5.25 11.5 5.25Z" fill="#3E1B86"/>
</svg>
