<svg width="24" height="24" viewBox="0 0 24 24" fill="none" xmlns="http://www.w3.org/2000/svg">
<path fill-rule="evenodd" clip-rule="evenodd" d="M12 5.25C11.0335 5.25 10.25 6.0335 10.25 7C10.25 7.9665 11.0335 8.75 12 8.75C12.9665 8.75 13.75 7.9665 13.75 7C13.75 6.0335 12.9665 5.25 12 5.25ZM8.75 7C8.75 5.20507 10.2051 3.75 12 3.75C13.7949 3.75 15.25 5.20507 15.25 7C15.25 8.79493 13.7949 10.25 12 10.25C10.2051 10.25 8.75 8.79493 8.75 7Z" fill="#3E1B86"/>
<path fill-rule="evenodd" clip-rule="evenodd" d="M4.75 18.1C4.75 14.593 7.59299 11.75 11.1 11.75H12.9C16.407 11.75 19.25 14.593 19.25 18.1C19.25 19.2874 18.2874 20.25 17.1 20.25H6.9C5.71259 20.25 4.75 19.2874 4.75 18.1ZM11.1 13.25C8.42142 13.25 6.25 15.4214 6.25 18.1C6.25 18.459 6.54102 18.75 6.9 18.75H17.1C17.459 18.75 17.75 18.459 17.75 18.1C17.75 15.4214 15.5786 13.25 12.9 13.25H11.1Z" fill="#3E1B86"/>
</svg>
