<svg width="24" height="24" viewBox="0 0 24 24" fill="none" xmlns="http://www.w3.org/2000/svg">
<path fill-rule="evenodd" clip-rule="evenodd" d="M11.7033 5.3077C11.0447 5.9604 10.6389 6.93281 10.6389 8.20769V9.30017C10.6389 10.2668 9.85522 11.05 8.88889 11.05H8.25C8.11193 11.05 8 11.1619 8 11.3V12.7C8 12.8381 8.11193 12.95 8.25 12.95H8.88889C9.85539 12.95 10.6389 13.7335 10.6389 14.7V19.5C10.6389 19.6381 10.7508 19.75 10.8889 19.75H12.3194C12.4575 19.75 12.5694 19.6381 12.5694 19.5V14.7C12.5694 13.7335 13.3529 12.95 14.3194 12.95H15.0618C15.1746 12.95 15.2735 12.8744 15.3031 12.7655L15.6834 11.3655C15.7266 11.2066 15.6068 11.05 15.4421 11.05H14.3194C13.3529 11.05 12.5694 10.2665 12.5694 9.3V7.9C12.5694 6.9335 13.3529 6.15 14.3194 6.15H15.75C15.8881 6.15 16 6.03807 16 5.9V4.5C16 4.36172 15.8881 4.25 15.7502 4.25H14.6389C13.3471 4.25 12.3626 4.6543 11.7033 5.3077ZM10.6474 4.2423C11.6374 3.26109 13.0279 2.75 14.6389 2.75H15.7502C16.7169 2.75 17.5 3.53372 17.5 4.5V5.9C17.5 6.8665 16.7165 7.65 15.75 7.65H14.3194C14.1814 7.65 14.0694 7.76193 14.0694 7.9V9.3C14.0694 9.43807 14.1814 9.55 14.3194 9.55H15.4421C16.5953 9.55 17.4332 10.6459 17.1309 11.7588L16.7506 13.1588C16.5435 13.921 15.8516 14.45 15.0618 14.45H14.3194C14.1814 14.45 14.0694 14.5619 14.0694 14.7V19.5C14.0694 20.4665 13.2859 21.25 12.3194 21.25H10.8889C9.92239 21.25 9.13889 20.4665 9.13889 19.5V14.7C9.13889 14.5619 9.02696 14.45 8.88889 14.45H8.25C7.2835 14.45 6.5 13.6665 6.5 12.7V11.3C6.5 10.3335 7.2835 9.55 8.25 9.55H8.88889C9.02713 9.55 9.13889 9.43808 9.13889 9.30017V8.20769C9.13889 6.60565 9.65666 5.22422 10.6474 4.2423Z" fill="#3E1B86"/>
</svg>
