<svg width="24" height="24" viewBox="0 0 24 24" fill="none" xmlns="http://www.w3.org/2000/svg">
<path fill-rule="evenodd" clip-rule="evenodd" d="M11.9993 20.249C11.5851 20.249 11.2493 19.9132 11.2493 19.499L11.2493 4.49902C11.2493 4.08481 11.5851 3.74902 11.9993 3.74902C12.4135 3.74902 12.7493 4.08481 12.7493 4.49902L12.7493 19.499C12.7493 19.9132 12.4135 20.249 11.9993 20.249Z" fill="#3E1B86"/>
<path fill-rule="evenodd" clip-rule="evenodd" d="M3.96894 12.2988C3.67604 12.5917 3.67604 13.0665 3.96894 13.3594L10.0547 19.4452C11.1287 20.5192 12.8699 20.5192 13.9438 19.4452L20.0296 13.3594C20.3225 13.0665 20.3225 12.5917 20.0296 12.2988C19.7367 12.0059 19.2618 12.0059 18.9689 12.2988L12.8832 18.3846C12.395 18.8727 11.6035 18.8727 11.1154 18.3846L5.0296 12.2988C4.7367 12.0059 4.26183 12.0059 3.96894 12.2988Z" fill="#3E1B86"/>
</svg>
