<svg width="24" height="24" viewBox="0 0 24 24" fill="none" xmlns="http://www.w3.org/2000/svg">
<path fill-rule="evenodd" clip-rule="evenodd" d="M7.94523 2.25C6.57765 2.25 5.47522 2.24992 4.60842 2.36648C3.70826 2.48758 2.95038 2.7464 2.34842 3.34836C1.74646 3.95024 1.48764 4.70812 1.36654 5.60836C1.24998 6.47532 1.25006 7.57766 1.25006 8.94516V18.0106C1.25006 18.4252 1.25006 18.7498 1.25569 18.9959C1.26108 19.2293 1.27186 19.4519 1.30998 19.6317C1.75622 21.7345 4.33418 22.5353 5.89338 21.0552C6.02674 20.9287 6.16166 20.7513 6.2983 20.562C6.44236 20.3625 6.62626 20.095 6.8612 19.7532L7.03558 19.4997C7.22808 19.2196 7.29512 19.1238 7.3637 19.043C7.73948 18.6009 8.2716 18.321 8.84878 18.2618C8.95425 18.251 9.07112 18.2501 9.41096 18.2501H16.055C17.4225 18.2501 18.5248 18.2501 19.3918 18.1336C20.2918 18.0126 21.0497 17.7537 21.6518 17.1518C22.2536 16.5498 22.5125 15.792 22.6336 14.8918C22.75 14.0248 22.75 12.9225 22.75 11.555V8.9452C22.75 7.57762 22.75 6.4752 22.6336 5.6084C22.5125 4.70824 22.2536 3.95036 21.6518 3.3484C21.0497 2.74644 20.2919 2.48762 19.3918 2.36652C18.5247 2.24996 17.4225 2.25004 16.055 2.25004L7.94523 2.25ZM3.40902 4.409C3.68582 4.13228 4.07442 3.95182 4.80816 3.85314C5.56348 3.75158 6.56465 3.75002 7.99997 3.75002H16C17.4354 3.75002 18.4364 3.75158 19.1918 3.85314C19.9256 3.95181 20.3141 4.13228 20.5909 4.409C20.8677 4.6858 21.0481 5.0744 21.1468 5.80814C21.2483 6.56346 21.2499 7.56462 21.2499 8.99994V11.4999C21.2499 12.9353 21.2483 13.9363 21.1468 14.6917C21.0481 15.4256 20.8677 15.8141 20.5909 16.0909C20.3141 16.3677 19.9256 16.5481 19.1918 16.6467C18.4364 16.7483 17.4353 16.7499 16 16.7499H9.37276C9.08534 16.7499 8.88706 16.7498 8.69581 16.7694C7.73371 16.868 6.8469 17.3345 6.2206 18.0714C6.09607 18.218 5.98381 18.3813 5.82101 18.6182L5.63093 18.8946C5.38883 19.2467 5.21469 19.5 5.08195 19.6839C4.94062 19.8796 4.87953 19.9492 4.86063 19.9671C4.15195 20.6398 2.98009 20.2759 2.77723 19.32C2.77176 19.2945 2.76074 19.2027 2.7552 18.9613C2.75004 18.7345 2.74996 18.4271 2.74996 17.9999V8.99988C2.74996 7.56448 2.75152 6.56327 2.85308 5.80807C2.95176 5.07431 3.13222 4.68574 3.40894 4.40894L3.40902 4.409ZM5.50002 10.5C5.50002 9.67156 6.17159 9 7.00002 9C7.82846 9 8.50002 9.67156 8.50002 10.5C8.50002 11.3284 7.82846 12 7.00002 12C6.17159 12 5.50002 11.3284 5.50002 10.5ZM10.5 10.5C10.5 9.67156 11.1716 9 12 9C12.8285 9 13.5 9.67156 13.5 10.5C13.5 11.3284 12.8285 12 12 12C11.1716 12 10.5 11.3284 10.5 10.5ZM15.5 10.5C15.5 9.67156 16.1716 9 17 9C17.8285 9 18.5 9.67156 18.5 10.5C18.5 11.3284 17.8285 12 17 12C16.1716 12 15.5 11.3284 15.5 10.5Z" fill="#3E1B86"/>
</svg>
