<svg width="24" height="24" viewBox="0 0 24 24" fill="none" xmlns="http://www.w3.org/2000/svg">
<path fill-rule="evenodd" clip-rule="evenodd" d="M10.6398 3.96962C10.9327 3.67683 11.4075 3.67676 11.7003 3.96962C11.993 4.26249 11.9931 4.73733 11.7003 5.03016L5.61439 11.1161C5.57224 11.1583 5.53501 11.2036 5.50014 11.2499H19.5001C19.9142 11.2501 20.2501 11.5858 20.2501 11.9999C20.2501 12.4139 19.9141 12.7497 19.5001 12.7499H5.50014C5.535 12.7962 5.57226 12.8415 5.61439 12.8837L11.7003 18.9696C11.993 19.2625 11.9931 19.7373 11.7003 20.0302C11.4075 20.323 10.9327 20.3229 10.6398 20.0302L4.55385 13.9442C3.47992 12.8703 3.47995 11.1295 4.55385 10.0556L10.6398 3.96962Z" fill="#3E1B86"/>
</svg>
