<svg width="24" height="24" viewBox="0 0 24 24" fill="none" xmlns="http://www.w3.org/2000/svg">
<path fill-rule="evenodd" clip-rule="evenodd" d="M10.8666 3.85132C10.3609 4.14086 9.75765 4.58382 8.88577 5.22624L5.38577 7.80524C4.12717 8.73266 3.71475 9.06 3.49187 9.5011C3.26905 9.94212 3.25007 10.4684 3.25007 12.0317V15.4999C3.25007 16.9353 3.25163 17.9363 3.35319 18.6917C3.45187 19.4255 3.63233 19.814 3.90905 20.0908C4.18585 20.3676 4.57445 20.548 5.30819 20.6466C6.06351 20.7483 7.06467 20.7498 8.49999 20.7498H15.5C16.9354 20.7498 17.9364 20.7483 18.6918 20.6466C19.4256 20.548 19.8141 20.3676 20.0909 20.0908C20.3677 19.814 20.5481 19.4254 20.6468 18.6917C20.7484 17.9363 20.7499 16.9352 20.7499 15.4999V12.0317C20.7499 10.4683 20.7309 9.9421 20.5081 9.5011C20.2852 9.06 19.8728 8.73266 18.6142 7.80524L15.1142 5.22624C14.2423 4.58382 13.6391 4.14078 13.1334 3.85132C12.6445 3.57148 12.3145 3.47632 11.9999 3.47632C11.6853 3.47632 11.3553 3.57147 10.8665 3.85132H10.8666ZM10.1215 2.54944C10.7369 2.19726 11.3287 1.97632 12.0001 1.97632C12.6714 1.97632 13.2633 2.19726 13.8787 2.54944C14.4685 2.8871 15.141 3.38264 15.9681 3.99202L19.5041 6.59762C19.5515 6.63254 19.5983 6.66699 19.6445 6.70098C20.705 7.48144 21.4426 8.02434 21.8469 8.82458C22.2512 9.62482 22.2507 10.5407 22.25 11.8574C22.2499 11.9146 22.2499 11.9728 22.2499 12.0317V15.5549C22.2499 16.9225 22.2499 18.0247 22.1334 18.8917C22.0124 19.7918 21.7535 20.5496 21.1515 21.1515C20.5496 21.7535 19.7918 22.0124 18.8917 22.1334C18.0247 22.2499 16.9224 22.2499 15.5549 22.2499H8.44506C7.07748 22.2499 5.97506 22.2499 5.10826 22.1334C4.2081 22.0124 3.45022 21.7535 2.84826 21.1515C2.2463 20.5496 1.98748 19.7917 1.86638 18.8917C1.74981 18.0247 1.74989 16.9225 1.74989 15.5549V12.0317C1.74989 11.9728 1.74989 11.9146 1.74981 11.8574C1.74911 10.5407 1.74856 9.62478 2.15293 8.82458C2.5573 8.02438 3.29489 7.48146 4.35533 6.70098C4.40151 6.66699 4.44838 6.63254 4.4958 6.59762L8.0318 3.99202C8.85884 3.38264 9.53134 2.8871 10.1212 2.54944H10.1215Z" fill="#3E1B86"/>
</svg>
