<svg width="24" height="24" viewBox="0 0 24 24" fill="none" xmlns="http://www.w3.org/2000/svg">
<path fill-rule="evenodd" clip-rule="evenodd" d="M6.25 9.00001C6.25 5.82441 8.8244 3.25001 12 3.25001C15.1756 3.25001 17.75 5.82441 17.75 9.00001V15.403C17.75 17.0797 16.5015 18.494 14.8378 18.702L14.4805 18.7467C14.1343 18.1508 13.489 17.7501 12.7501 17.7501H11.2501C10.1455 17.7501 9.25008 18.6455 9.25008 19.7501C9.25008 20.8547 10.1455 21.7501 11.2501 21.7501H12.7501C13.6885 21.7501 14.476 21.1038 14.6916 20.232L15.0239 20.1905C17.0781 19.9337 18.6961 18.4097 19.1331 16.4619C19.4013 16.5406 19.692 16.5619 19.9893 16.5123C21.2939 16.2948 22.2499 15.1661 22.2499 13.8436V11.1564C22.2499 9.83403 21.2938 8.70545 19.9893 8.48785C19.7288 8.44441 19.4734 8.45527 19.2338 8.5116C18.9826 4.7352 15.8398 1.75 12 1.75C8.1602 1.75 5.0174 4.7354 4.7662 8.5116C4.5266 8.45527 4.2712 8.44441 4.01066 8.48785C2.70612 8.70527 1.75006 9.83395 1.75006 11.1564V13.8436C1.75006 15.1661 2.70616 16.2947 4.01066 16.5123C4.32074 16.564 4.62348 16.5387 4.90106 16.4516C5.03801 16.633 5.25536 16.7501 5.50004 16.7501C5.91426 16.7501 6.25004 16.4144 6.25004 16.0001L6.25 9.00001ZM4.25718 9.96751C4.51514 9.92447 4.75 10.1235 4.75 10.3849V14.6151C4.75 14.8766 4.51516 15.0755 4.25718 15.0326C3.676 14.9358 3.25 14.4329 3.25 13.8437V11.1565C3.25 10.5672 3.67602 10.0644 4.25718 9.96755V9.96751ZM19.25 10.3849V14.6151C19.25 14.8766 19.4847 15.0755 19.7428 15.0326C20.324 14.9358 20.75 14.4329 20.75 13.8437V11.1565C20.75 10.5672 20.324 10.0644 19.7428 9.96755C19.4848 9.92451 19.25 10.1235 19.25 10.385V10.3849ZM10.75 19.7499C10.75 19.4738 10.9739 19.2499 11.25 19.2499H12.75C13.0261 19.2499 13.25 19.4738 13.25 19.7499C13.25 20.026 13.0261 20.2499 12.75 20.2499H11.25C10.9739 20.2499 10.75 20.026 10.75 19.7499Z" fill="#3E1B86"/>
</svg>
