<svg width="24" height="24" viewBox="0 0 24 24" fill="none" xmlns="http://www.w3.org/2000/svg">
<path fill-rule="evenodd" clip-rule="evenodd" d="M8 9.75C8 7.54082 9.79093 5.75 12 5.75C14.2092 5.75 16 7.54083 16 9.75C16 11.9592 14.2092 13.75 12 13.75C9.79083 13.75 8 11.9592 8 9.75ZM12 7.25C10.6193 7.25 9.5 8.36927 9.5 9.75C9.5 11.1307 10.6193 12.25 12 12.25C13.3807 12.25 14.5 11.1307 14.5 9.75C14.5 8.36926 13.3807 7.25 12 7.25Z" fill="#3E1B86"/>
<path fill-rule="evenodd" clip-rule="evenodd" d="M5.81118 4.38042C7.20937 2.78648 9.29299 1.75 12 1.75C14.707 1.75 16.7906 2.78648 18.1888 4.38042C19.5743 5.95982 20.25 8.04286 20.25 10.1C20.25 12.1547 19.4215 15.1299 18.0452 17.5911C17.3531 18.8288 16.5002 19.9773 15.5033 20.8246C14.504 21.6739 13.3225 22.25 12 22.25C10.6775 22.25 9.496 21.6739 8.49672 20.8246C7.49978 19.9773 6.64691 18.8288 5.95478 17.5911C4.57848 15.1299 3.75 12.1547 3.75 10.1C3.75 8.04286 4.42574 5.95982 5.81118 4.38042ZM6.93882 5.36958C5.82426 6.64018 5.25 8.35714 5.25 10.1C5.25 11.8453 5.98402 14.5701 7.26397 16.8589C7.89997 17.9962 8.64865 18.9852 9.46812 19.6816C10.2852 20.3761 11.135 20.75 12 20.75C12.865 20.75 13.7148 20.3761 14.5319 19.6816C15.3513 18.9852 16.1 17.9962 16.736 16.8589C18.016 14.5701 18.75 11.8453 18.75 10.1C18.75 8.35714 18.1757 6.64018 17.0612 5.36958C15.9594 4.11352 14.293 3.25 12 3.25C9.70701 3.25 8.04063 4.11352 6.93882 5.36958Z" fill="#3E1B86"/>
</svg>
