<svg width="24" height="24" viewBox="0 0 24 24" fill="none" xmlns="http://www.w3.org/2000/svg">
<path fill-rule="evenodd" clip-rule="evenodd" d="M6.96967 10.7197C7.26256 10.4268 7.73744 10.4268 8.03033 10.7197L11.1161 13.8055C11.6043 14.2936 12.3957 14.2936 12.8839 13.8055L15.9697 10.7197C16.2626 10.4268 16.7374 10.4268 17.0303 10.7197C17.3232 11.0126 17.3232 11.4874 17.0303 11.7803L13.9445 14.8661C12.8706 15.9401 11.1294 15.9401 10.0555 14.8661L6.96967 11.7803C6.67678 11.4874 6.67678 11.0126 6.96967 10.7197Z" fill="#3E1B86"/>
<path fill-rule="evenodd" clip-rule="evenodd" d="M12 3.75C12.4142 3.75 12.75 4.08579 12.75 4.5V14C12.75 14.4142 12.4142 14.75 12 14.75C11.5858 14.75 11.25 14.4142 11.25 14V4.5C11.25 4.08579 11.5858 3.75 12 3.75Z" fill="#3E1B86"/>
<g clip-path="url(#clip0_20_1038)">
<path d="M20.1969 16.7577C20.2502 16.1694 20.2502 15.4401 20.2502 14.5359V12.7463H18.75V14.4998C18.75 15.4483 18.7493 16.1095 18.7028 16.622C18.6573 17.1244 18.5726 17.4099 18.4486 17.6249C18.2511 17.9669 17.9671 18.251 17.625 18.4485C17.4101 18.5725 17.1245 18.6571 16.6222 18.7027C16.1096 18.7492 15.4484 18.7499 14.5 18.7499H10.5C9.06467 18.7499 8.06351 18.7483 7.30819 18.6468C6.57445 18.5481 6.18585 18.3677 5.90905 18.0909C5.63233 17.8141 5.45187 17.4256 5.35319 16.6918C5.25163 15.9364 5.25007 14.9354 5.25007 13.5V12.7467H3.75V13.5551V13.5578C3.75 14.924 3.75 16.0254 3.86648 16.8919C3.98758 17.792 4.2464 18.5498 4.84836 19.1519C5.45032 19.7537 6.2082 20.0126 7.10836 20.1337C7.97536 20.2501 9.07766 20.2501 10.4451 20.2501H10.4452H14.536C15.4402 20.2501 16.1695 20.2501 16.7578 20.1969C17.3642 20.1419 17.894 20.0255 18.3752 19.7477C18.9453 19.4187 19.4187 18.9452 19.7478 18.3751C20.0256 17.8938 20.1419 17.364 20.1969 16.7577Z" fill="#3E1B86"/>
</g>
<path fill-rule="evenodd" clip-rule="evenodd" d="M4.5 12C4.91421 12 5.25 12.3358 5.25 12.75V14C5.25 14.4142 4.91421 14.75 4.5 14.75C4.08579 14.75 3.75 14.4142 3.75 14V12.75C3.75 12.3358 4.08579 12 4.5 12Z" fill="#3E1B86"/>
<path fill-rule="evenodd" clip-rule="evenodd" d="M19.5 12C19.9142 12 20.25 12.3358 20.25 12.75V14C20.25 14.4142 19.9142 14.75 19.5 14.75C19.0858 14.75 18.75 14.4142 18.75 14V12.75C18.75 12.3358 19.0858 12 19.5 12Z" fill="#3E1B86"/>
<defs>
<clipPath id="clip0_20_1038">
<rect width="16.5" height="7.5" fill="white" transform="translate(3.75 12.75)"/>
</clipPath>
</defs>
</svg>
