<svg width="24" height="24" viewBox="0 0 24 24" fill="none" xmlns="http://www.w3.org/2000/svg">
<path fill-rule="evenodd" clip-rule="evenodd" d="M1.96967 1.96967C2.26256 1.67678 2.73744 1.67678 3.03033 1.96967L12 10.9393L20.9697 1.96967C21.2626 1.67678 21.7374 1.67678 22.0303 1.96967C22.3232 2.26256 22.3232 2.73744 22.0303 3.03033L13.0607 12L22.0303 20.9697C22.3232 21.2626 22.3232 21.7374 22.0303 22.0303C21.7374 22.3232 21.2626 22.3232 20.9697 22.0303L12 13.0607L3.03033 22.0303C2.73744 22.3232 2.26256 22.3232 1.96967 22.0303C1.67678 21.7374 1.67678 21.2626 1.96967 20.9697L10.9393 12L1.96967 3.03033C1.67678 2.73744 1.67678 2.26256 1.96967 1.96967Z" fill="#3E1B86"/>
</svg>
