<svg width="24" height="24" viewBox="0 0 24 24" fill="none" xmlns="http://www.w3.org/2000/svg">
<path d="M10.5 18.5C10.5 18.0858 10.8358 17.75 11.25 17.75H12.75C13.1642 17.75 13.5 18.0858 13.5 18.5C13.5 18.9142 13.1642 19.25 12.75 19.25H11.25C10.8358 19.25 10.5 18.9142 10.5 18.5Z" fill="#3E1B86"/>
<path fill-rule="evenodd" clip-rule="evenodd" d="M10.6952 1.75H13.305C14.6725 1.75 15.7748 1.74992 16.6418 1.86648C17.5418 1.98758 18.2997 2.2464 18.9018 2.84836C19.5036 3.45024 19.7625 4.20812 19.8836 5.10836C20 5.97532 20 7.07766 20 8.44516V15.555C20 16.9225 20 18.0248 19.8836 18.8918C19.7625 19.7918 19.5036 20.5497 18.9018 21.1518C18.2997 21.7536 17.5419 22.0125 16.6418 22.1336C15.7747 22.25 14.6725 22.25 13.305 22.25H10.6952C9.32766 22.25 8.22536 22.25 7.35836 22.1336C6.4582 22.0126 5.70032 21.7536 5.09836 21.1518C4.4964 20.5497 4.23758 19.7919 4.11648 18.8918C3.99992 18.0247 4 16.9225 4 15.555V8.44516C4 7.07758 3.99992 5.97516 4.11648 5.10836C4.23758 4.2082 4.4964 3.45032 5.09836 2.84836C5.70024 2.2464 6.45812 1.98758 7.35836 1.86648C8.22532 1.74992 9.32766 1.75 10.6952 1.75ZM7.55816 3.35312C6.8244 3.45179 6.43582 3.63226 6.15902 3.90898C5.8823 4.18578 5.70184 4.57438 5.60316 5.30812C5.5016 6.06344 5.50004 7.0646 5.50004 8.49992V15.4999C5.50004 16.9353 5.5016 17.9363 5.60316 18.6917C5.70184 19.4255 5.8823 19.8141 6.15902 20.0909C6.43582 20.3677 6.82442 20.548 7.55816 20.6467C8.31348 20.7483 9.31464 20.7498 10.75 20.7498H13.25C14.6854 20.7498 15.6864 20.7483 16.4418 20.6467C17.1756 20.548 17.5641 20.3677 17.8409 20.0909C18.1177 19.8141 18.2981 19.4255 18.3968 18.6917C18.4983 17.9363 18.4999 16.9352 18.4999 15.4999V8.49992C18.4999 7.06452 18.4983 6.06332 18.3968 5.30812C18.2981 4.57436 18.1177 4.18578 17.8409 3.90898C17.5641 3.63226 17.1756 3.4518 16.4418 3.35312C15.6864 3.25156 14.6853 3.25 13.25 3.25H10.75C9.31456 3.25 8.31336 3.25156 7.55816 3.35312Z" fill="#3E1B86"/>
</svg>
