<svg width="24" height="24" viewBox="0 0 24 24" fill="none" xmlns="http://www.w3.org/2000/svg">
<path fill-rule="evenodd" clip-rule="evenodd" d="M7.80604 4.27935C9.59281 0.920231 14.407 0.920229 16.1937 4.27935L22.0355 15.2618C23.7181 18.4254 21.4254 22.2419 17.8422 22.2422H6.15858C2.57516 22.2422 0.281735 18.4255 1.96425 15.2618L7.80604 4.27935ZM11.9603 14.9063C11.643 14.9063 11.3858 15.0139 11.1898 15.2286C11.0033 15.4339 10.9096 15.6999 10.9096 16.0264C10.9096 16.381 10.9989 16.6566 11.1762 16.8526C11.3628 17.0484 11.6245 17.1465 11.9603 17.1465C12.2775 17.1465 12.5296 17.0432 12.7162 16.8379C12.912 16.6234 13.0101 16.3529 13.0101 16.0264C13.0101 15.6624 12.9165 15.3869 12.7299 15.2002C12.5526 15.0043 12.2962 14.9064 11.9603 14.9063ZM11.0775 7.13579V8.15825C11.0775 8.70891 11.0968 9.29228 11.1342 9.90825C11.1715 10.5148 11.2178 11.1307 11.2738 11.7559C11.3391 12.3718 11.4048 12.9693 11.4701 13.5479H12.5062C12.5809 13.0068 12.6456 12.4283 12.7016 11.8126C12.7669 11.1966 12.8142 10.5756 12.8422 9.95025C12.8795 9.32493 12.8978 8.72757 12.8978 8.15825V7.13579H11.0775Z" fill="#3E1B86"/>
</svg>
