<svg width="24" height="24" viewBox="0 0 24 24" fill="none" xmlns="http://www.w3.org/2000/svg">
<path d="M19.4687 3.91438C19.1452 3.65562 18.6733 3.70806 18.4144 4.03149C18.1558 4.35493 18.2081 4.82689 18.5316 5.08563L19.362 5.75001L18.2769 5.74993C16.9958 5.74923 16.1047 5.74876 15.3203 6.13391C14.5359 6.51907 13.9915 7.22445 13.2087 8.23871L12.4066 9.27675C12.1534 9.60449 12.2138 10.0755 12.5416 10.3289C12.8694 10.5821 13.3404 10.5216 13.5937 10.1939L14.2922 9.28995C15.2217 8.08683 15.5491 7.69269 15.9816 7.48035C16.414 7.26809 16.9259 7.25003 18.4464 7.25003H21.5002C21.8187 7.25003 22.1024 7.04885 22.2079 6.74831C22.3134 6.44769 22.2174 6.11331 21.9687 5.91441L19.4687 3.91438Z" fill="#3E1B86"/>
<path d="M10.2981 14.4586C10.5514 14.1308 10.491 13.6598 10.1632 13.4065C9.83548 13.1533 9.36446 13.2137 9.11118 13.5414L8.20814 14.7101C7.27846 15.9132 6.9511 16.3073 6.51868 16.5197C6.08626 16.7321 5.5743 16.7501 4.05388 16.7501H2.50012C2.0859 16.7501 1.75012 17.0858 1.75012 17.5001C1.75012 17.9143 2.0859 18.2501 2.50012 18.2501L4.22324 18.2501C5.50442 18.2508 6.39544 18.2514 7.17984 17.8662C7.9643 17.481 8.50866 16.7755 9.29144 15.7616L10.2981 14.4586Z" fill="#3E1B86"/>
<path d="M18.9161 20.1239C18.5715 20.3537 18.1057 20.2606 17.8761 19.9159C17.6462 19.5713 17.7393 19.1056 18.084 18.8759L19.0229 18.2499L18.2768 18.25C16.9957 18.2507 16.1046 18.2512 15.3202 17.866C14.5358 17.4809 13.9914 16.7754 13.2086 15.7612L8.20802 9.28981C7.27834 8.08669 6.95098 7.69255 6.51856 7.48021C6.08614 7.26795 5.57418 7.24989 4.05376 7.24989H2.5C2.08578 7.24989 1.75 6.91411 1.75 6.49989C1.75 6.08567 2.08578 5.74989 2.5 5.74989L4.22312 5.74981C5.5043 5.74911 6.39532 5.74864 7.17972 6.13379C7.96418 6.51895 8.50854 7.22433 9.29132 8.23859L14.2919 14.71C15.2215 15.9131 15.5489 16.3072 15.9813 16.5195C16.4137 16.732 16.9257 16.7499 18.4461 16.7499H21.4999C21.8304 16.7499 22.1219 16.9663 22.2177 17.2827C22.3135 17.5989 22.1909 17.9406 21.9159 18.1239L18.9161 20.1239Z" fill="#3E1B86"/>
</svg>
