<svg width="24" height="24" viewBox="0 0 24 24" fill="none" xmlns="http://www.w3.org/2000/svg">
<path fill-rule="evenodd" clip-rule="evenodd" d="M3.75 7C3.75 6.58579 4.08579 6.25 4.5 6.25H19.5C19.9142 6.25 20.25 6.58579 20.25 7C20.25 7.41421 19.9142 7.75 19.5 7.75H4.5C4.08579 7.75 3.75 7.41421 3.75 7Z" fill="#3E1B86"/>
<path fill-rule="evenodd" clip-rule="evenodd" d="M10.75 12C10.75 11.5858 11.0858 11.25 11.5 11.25H19.5C19.9142 11.25 20.25 11.5858 20.25 12C20.25 12.4142 19.9142 12.75 19.5 12.75H11.5C11.0858 12.75 10.75 12.4142 10.75 12Z" fill="#3E1B86"/>
<path fill-rule="evenodd" clip-rule="evenodd" d="M6.75 17C6.75 16.5858 7.08579 16.25 7.5 16.25H19.5C19.9142 16.25 20.25 16.5858 20.25 17C20.25 17.4142 19.9142 17.75 19.5 17.75H7.5C7.08579 17.75 6.75 17.4142 6.75 17Z" fill="#3E1B86"/>
</svg>
