<svg width="24" height="24" viewBox="0 0 24 24" fill="none" xmlns="http://www.w3.org/2000/svg">
<path fill-rule="evenodd" clip-rule="evenodd" d="M4.31177 4.31177C5.39677 3.22678 6.96334 2.75 8.86842 2.75H15.1316C17.0367 2.75 18.6032 3.22678 19.6882 4.31177C20.7732 5.39677 21.25 6.96334 21.25 8.86842V15.1316C21.25 17.0367 20.7732 18.6032 19.6882 19.6882C18.6032 20.7732 17.0367 21.25 15.1316 21.25H8.86842C6.96334 21.25 5.39677 20.7732 4.31177 19.6882C3.22678 18.6032 2.75 17.0367 2.75 15.1316V8.86842C2.75 6.96334 3.22678 5.39677 4.31177 4.31177ZM5.37244 5.37244C4.66796 6.07691 4.25 7.19456 4.25 8.86842V15.1316C4.25 16.8054 4.66796 17.9231 5.37244 18.6276C6.07691 19.332 7.19456 19.75 8.86842 19.75H15.1316C16.8054 19.75 17.9231 19.332 18.6276 18.6276C19.332 17.9231 19.75 16.8054 19.75 15.1316V8.86842C19.75 7.19456 19.332 6.07691 18.6276 5.37244C17.9231 4.66796 16.8054 4.25 15.1316 4.25H8.86842C7.19456 4.25 6.07691 4.66796 5.37244 5.37244Z" fill="#3E1B86"/>
<path fill-rule="evenodd" clip-rule="evenodd" d="M12 9C10.3431 9 9 10.3431 9 12C9 13.6569 10.3431 15 12 15C13.6569 15 15 13.6569 15 12C15 10.3431 13.6569 9 12 9ZM7.5 12C7.5 9.51472 9.51472 7.5 12 7.5C14.4853 7.5 16.5 9.51472 16.5 12C16.5 14.4853 14.4853 16.5 12 16.5C9.51472 16.5 7.5 14.4853 7.5 12Z" fill="#3E1B86"/>
<path d="M17.75 7C17.75 7.41421 17.4142 7.75 17 7.75C16.5858 7.75 16.25 7.41421 16.25 7C16.25 6.58579 16.5858 6.25 17 6.25C17.4142 6.25 17.75 6.58579 17.75 7Z" fill="#3E1B86"/>
</svg>
