<svg width="24" height="24" viewBox="0 0 24 24" fill="none" xmlns="http://www.w3.org/2000/svg">
<path d="M11.9672 2.25C11.1066 2.25 10.3178 2.70664 9.8664 3.43882L9.02808 4.79813C8.41416 5.79377 8.10714 6.29149 7.65034 6.63337C7.19352 6.97517 6.62938 7.12917 5.50094 7.43713L4.06554 7.82893C3.2368 8.05603 2.59212 8.70033 2.33594 9.52033C2.07954 10.3388 2.24392 11.2406 2.77032 11.9113L3.81954 13.2459C4.51142 14.126 4.85734 14.5662 5.02188 15.088C5.18641 15.6099 5.15539 16.1688 5.09336 17.2866L4.99578 19.0456C4.94758 19.9023 5.32094 20.7366 6.00618 21.2538C6.6939 21.7746 7.59524 21.8934 8.39078 21.5732L8.39297 21.5723L9.70953 21.0377C10.824 20.5852 11.3812 20.3589 11.9671 20.3589C12.5531 20.3589 13.1103 20.5852 14.2247 21.0377L15.5413 21.5723L15.5434 21.5732C16.3391 21.8934 17.2406 21.7746 17.9282 21.2537C18.6084 20.7401 18.9812 19.9141 18.9394 19.0641L18.9193 16.7977L18.9193 16.7963C18.9094 15.679 18.9045 15.1202 19.0927 14.6073C19.2809 14.0942 19.646 13.6711 20.376 12.8252L20.3768 12.8244L21.1534 11.9244L21.1642 11.9108C21.6906 11.24 21.8547 10.3386 21.5982 9.52016C21.3421 8.70016 20.6967 8.05564 19.8679 7.8286L18.4332 7.43696L18.4329 7.43688C17.3047 7.12895 16.7405 6.97497 16.2838 6.6332C15.827 6.29145 15.52 5.79372 14.9062 4.79839L14.906 4.79796L14.068 3.4389C13.6166 2.70664 12.8277 2.25 11.9672 2.25Z" fill="#3E1B86"/>
</svg>
