<svg width="24" height="24" viewBox="0 0 24 24" fill="none" xmlns="http://www.w3.org/2000/svg">
<path fill-rule="evenodd" clip-rule="evenodd" d="M8.44523 3.75C7.07765 3.75 5.97523 3.74992 5.10843 3.86648C4.20827 3.98758 3.45039 4.2464 2.84843 4.84836C2.24647 5.45024 1.98764 6.20812 1.86654 7.10836C1.74998 7.97532 1.75006 9.07758 1.75006 10.4452V13.555C1.75006 14.9225 1.74998 16.0248 1.86654 16.8918C1.98764 17.7918 2.24647 18.5497 2.84843 19.1518C3.45031 19.7536 4.20819 20.0125 5.10843 20.1336C5.97539 20.25 7.07773 20.25 8.44523 20.25H16.552C17.4505 20.25 18.1997 20.2501 18.7944 20.1701C19.4222 20.0857 19.989 19.9 20.4444 19.4447C20.8999 18.9891 21.0856 18.4223 21.17 17.7946C21.216 17.4519 21.2356 17.0583 21.2438 16.6143C21.3732 16.574 21.5006 16.5204 21.6249 16.4486C21.9669 16.2511 22.251 15.9671 22.4485 15.625C22.6258 15.3179 22.6919 14.9918 22.7217 14.6628C22.7499 14.3515 22.7499 13.9721 22.7499 13.5322V13.4679C22.7499 13.028 22.7499 12.6486 22.7217 12.3375C22.6919 12.0082 22.6258 11.6822 22.4485 11.375C22.251 11.033 21.9669 10.7489 21.6249 10.5514C21.5022 10.4807 21.3764 10.4275 21.2487 10.3875C21.2458 9.96558 21.2361 9.5973 21.2039 9.28106C21.1558 8.80762 21.051 8.36824 20.7864 7.97224C20.6367 7.74818 20.4552 7.54778 20.2479 7.37708C20.183 5.36288 18.5298 3.75008 16.4999 3.75008L8.44523 3.75ZM19.7474 10.25C19.7436 9.91804 19.7343 9.65454 19.7117 9.43274C19.6756 9.0779 19.6118 8.91392 19.5393 8.80548C19.4481 8.669 19.331 8.5518 19.1945 8.46064C19.086 8.38814 18.922 8.32431 18.5672 8.28822C18.1998 8.25087 17.7178 8.24994 17 8.24994H7.00002C6.5858 8.24994 6.25002 7.91416 6.25002 7.49994C6.25002 7.08572 6.5858 6.74994 7.00002 6.74994H17.0382C17.667 6.74994 18.1981 6.74994 18.6349 6.78798C18.3371 5.8943 17.4938 5.24994 16.4999 5.24994H8.49994C7.06454 5.24994 6.06334 5.2515 5.30814 5.35307C4.57438 5.45174 4.1858 5.63221 3.909 5.90893C3.63228 6.18573 3.45182 6.57433 3.35314 7.30807C3.25158 8.06339 3.25002 9.06455 3.25002 10.4999V13.4999C3.25002 14.9353 3.25158 15.9363 3.35314 16.6917C3.45181 17.4255 3.63228 17.814 3.909 18.0908C4.1858 18.3676 4.5744 18.548 5.30814 18.6467C6.06346 18.7482 7.06462 18.7498 8.49994 18.7498H16.4999C17.4639 18.7498 18.1115 18.7482 18.5945 18.6833C19.056 18.6212 19.2535 18.514 19.3838 18.3837C19.5142 18.2534 19.6213 18.0559 19.6834 17.5944C19.7152 17.3581 19.7317 17.0825 19.7404 16.7497C19.6727 16.7498 19.6031 16.7498 19.5321 16.7498H18.9677C18.5279 16.7498 18.1485 16.7498 17.8373 16.7216C17.5081 16.6918 17.1821 16.6257 16.8749 16.4484C16.5329 16.2509 16.2488 15.9668 16.0513 15.6248C15.874 15.3176 15.8079 14.9916 15.7781 14.6625C15.7499 14.3512 15.7499 13.9718 15.7499 13.532V13.4676C15.7499 13.0278 15.7499 12.6484 15.7781 12.3372C15.8079 12.008 15.874 11.682 16.0513 11.3748C16.2488 11.0328 16.5329 10.7487 16.8749 10.5512C17.1821 10.3739 17.5081 10.3078 17.8373 10.278C18.1485 10.2498 18.5279 10.2498 18.9677 10.2498H19.5321C19.6056 10.2498 19.6773 10.2498 19.7474 10.2499L19.7474 10.25ZM17.625 11.8504C17.666 11.8268 17.7476 11.7924 17.9728 11.772C18.2082 11.7506 18.5189 11.7499 19 11.7499H19.5C19.9811 11.7499 20.2918 11.7506 20.5273 11.772C20.7524 11.7924 20.8341 11.8268 20.875 11.8504C20.989 11.9163 21.0837 12.0109 21.1496 12.1249C21.1732 12.1659 21.2075 12.2475 21.2279 12.4727C21.2493 12.7081 21.25 13.0189 21.25 13.4999C21.25 13.981 21.2493 14.2917 21.2279 14.5272C21.2075 14.7524 21.1732 14.834 21.1496 14.8749C21.0837 14.9889 20.989 15.0836 20.875 15.1495C20.8341 15.1731 20.7524 15.2074 20.5273 15.2278C20.2918 15.2492 19.9811 15.2499 19.5 15.2499H19C18.5189 15.2499 18.2082 15.2492 17.9728 15.2278C17.7476 15.2074 17.666 15.1731 17.625 15.1495C17.511 15.0836 17.4163 14.9889 17.3505 14.8749C17.3269 14.834 17.2925 14.7524 17.2721 14.5272C17.2507 14.2917 17.25 13.981 17.25 13.4999C17.25 13.0189 17.2507 12.7081 17.2721 12.4727C17.2925 12.2475 17.3269 12.1659 17.3505 12.1249C17.4163 12.011 17.511 11.9163 17.625 11.8504Z" fill="#3E1B86"/>
</svg>
