<svg width="24" height="24" viewBox="0 0 24 24" fill="none" xmlns="http://www.w3.org/2000/svg">
<path d="M17.2201 5.66178C17.1863 5.66006 17.1416 5.65983 16.9973 5.65983H9.04309C7.93763 5.65983 7.18403 5.66139 6.61929 5.73733C6.07617 5.81038 5.82133 5.93951 5.64711 6.11381C5.4729 6.28803 5.34367 6.54287 5.27063 7.08599C5.1947 7.65075 5.19313 8.40435 5.19313 9.50979V14.16L10.0745 14.1598H10.6238C11.038 14.1598 11.3738 14.4955 11.3738 14.9098C11.3738 15.3241 11.038 15.6598 10.6238 15.6598L4.57715 15.66C4.4627 15.66 4.39176 15.6601 4.33863 15.6615C4.30426 15.6623 4.28918 15.6637 4.28551 15.6641C4.15348 15.688 4.06403 15.8123 4.08293 15.9452C4.08371 15.9487 4.08731 15.9635 4.09731 15.9964C4.1127 16.0472 4.13504 16.1145 4.17129 16.223C4.24684 16.4498 4.26691 16.5066 4.28715 16.5504C4.44137 16.8841 4.75871 17.1128 5.12403 17.1535C5.172 17.1589 5.23231 17.16 5.47113 17.16L8.39233 17.1598H8.94303C9.35725 17.1598 9.69303 17.4955 9.69303 17.9098C9.69303 18.3241 9.35725 18.6598 8.94303 18.6598L5.43543 18.66C5.24981 18.6601 5.09965 18.6601 4.95769 18.6443C4.07059 18.5454 3.29973 17.9897 2.92529 17.1796C2.86537 17.0498 2.81795 16.9073 2.75927 16.7312L2.74802 16.6975L2.73302 16.6526C2.67881 16.4905 2.62381 16.3262 2.60076 16.1775C2.47318 15.3527 2.94412 14.5718 3.6928 14.2798V9.45683C3.6928 8.41777 3.69272 7.56261 3.78366 6.88623C3.87905 6.17677 4.0867 5.55263 4.58608 5.05319C5.08554 4.55381 5.70968 4.34615 6.41912 4.25077C7.09552 4.15983 7.9506 4.15991 8.98972 4.15991H17.0169C17.1329 4.15991 17.2183 4.15991 17.2946 4.16366C18.7886 4.23812 19.9968 5.38186 20.1714 6.84706C20.1854 6.90448 20.1929 6.96456 20.1929 7.02628V7.72738C20.1929 8.1416 19.8572 8.47738 19.4429 8.47738C19.0287 8.47738 18.6929 8.1416 18.6929 7.72738V7.35558C18.6929 7.21128 18.6927 7.1666 18.6911 7.13276C18.6515 6.33736 18.0154 5.70144 17.22 5.66182L17.2201 5.66178Z" fill="#3E1B86"/>
<path fill-rule="evenodd" clip-rule="evenodd" d="M20.7509 9.70987C19.8572 8.81611 18.4081 8.81611 17.5145 9.70987L12.3355 14.8889C11.4428 15.7816 10.8805 16.9517 10.7411 18.2063C10.6225 19.2735 11.65 20.1042 12.6689 19.7646L13.1289 19.6114C14.0731 19.2967 14.931 18.7663 15.6347 18.0627L20.7511 12.9463C21.6448 12.0526 21.6448 10.6035 20.7511 9.70987L20.7509 9.70987ZM18.5751 10.7706C18.883 10.4627 19.3823 10.4627 19.6902 10.7706C19.9982 11.0785 19.9982 11.5778 19.6902 11.8857L19.4434 12.1325L18.3282 11.0174L18.5751 10.7706ZM17.2676 12.0781L18.3827 13.1932L14.5739 17.002C14.0348 17.5411 13.3776 17.9474 12.6544 18.1884L12.2369 18.3275C12.3469 17.4281 12.7546 16.5909 13.3958 15.9497L17.2676 12.0781Z" fill="#3E1B86"/>
<path d="M7.94293 8.04468C7.52871 8.04468 7.19293 8.38046 7.19293 8.79468C7.19293 9.2089 7.52871 9.54468 7.94293 9.54468H14.9429C15.3572 9.54468 15.6929 9.2089 15.6929 8.79468C15.6929 8.38046 15.3572 8.04468 14.9429 8.04468H7.94293Z" fill="#3E1B86"/>
<path d="M10.5615 12.5447L7.94293 12.5448C7.52871 12.5448 7.19293 12.209 7.19293 11.7948C7.19293 11.3805 7.52863 11.0448 7.94285 11.0448L10.5615 11.0447C10.9757 11.0447 11.3115 11.3805 11.3115 11.7947C11.3115 12.2088 10.9758 12.5447 10.5615 12.5447Z" fill="#3E1B86"/>
</svg>
