<svg width="24" height="24" viewBox="0 0 24 24" fill="none" xmlns="http://www.w3.org/2000/svg">
<path fill-rule="evenodd" clip-rule="evenodd" d="M8.44516 3.75C7.07758 3.75 5.97516 3.74992 5.10836 3.86648C4.2082 3.98758 3.45032 4.2464 2.84836 4.84836C2.2464 5.45024 1.98758 6.20812 1.86648 7.10836C1.74992 7.97532 1.75 9.07766 1.75 10.4452V13.555C1.75 14.9225 1.74992 16.0248 1.86648 16.8918C1.98758 17.7918 2.2464 18.5497 2.84836 19.1518C3.45024 19.7536 4.20812 20.0125 5.10836 20.1336C5.97532 20.25 7.07766 20.25 8.44516 20.25H15.555C16.9225 20.25 18.0248 20.25 18.8918 20.1336C19.7918 20.0125 20.5497 19.7536 21.1518 19.1518C21.7536 18.5497 22.0125 17.7919 22.1336 16.8918C22.2501 16.0247 22.25 14.9225 22.25 13.555V10.4452C22.25 9.07766 22.2501 7.97536 22.1336 7.10836C22.0126 6.2082 21.7536 5.45032 21.1518 4.84836C20.5497 4.2464 19.7919 3.98758 18.8918 3.86648C18.0247 3.74992 16.9225 3.75 15.555 3.75H8.44516ZM3.90896 5.909C4.18576 5.63228 4.57436 5.45182 5.3081 5.35314C6.06342 5.25158 7.06458 5.25002 8.4999 5.25002H15.4999C16.9353 5.25002 17.9363 5.25158 18.6917 5.35314C19.4255 5.45181 19.814 5.63228 20.0908 5.909C20.2352 6.05345 20.3534 6.22838 20.4476 6.4669L18.0636 8.05612C16.4776 9.11338 15.3364 9.873 14.3718 10.3771C13.423 10.8729 12.7047 11.0884 11.9762 11.0974C11.2478 11.1063 10.5243 10.9087 9.56376 10.4364C8.58688 9.95626 7.42736 9.2251 5.81576 8.20722L3.46716 6.72386C3.5713 6.3466 3.71692 6.1009 3.9088 5.90894L3.90896 5.909ZM3.27186 8.3746L5.0517 9.49874C6.61866 10.4883 7.8453 11.263 8.9023 11.7827C9.9837 12.3144 10.9473 12.6104 11.9951 12.5973C13.0429 12.5844 13.9989 12.2648 15.0669 11.7066C16.1107 11.1612 17.3179 10.3565 18.8597 9.32844L20.7156 8.09126C20.7492 8.7293 20.75 9.5118 20.75 10.5003V13.5003C20.75 14.9357 20.7485 15.9367 20.6469 16.6921C20.5482 17.4259 20.3678 17.8144 20.091 18.0912C19.8142 18.368 19.4257 18.5484 18.6919 18.6471C17.9365 18.7486 16.9354 18.7502 15.5001 18.7502H8.5001C7.0647 18.7502 6.0635 18.7486 5.3083 18.6471C4.57454 18.5484 4.18596 18.368 3.90916 18.0912C3.63244 17.8144 3.45198 17.4259 3.3533 16.6921C3.25173 15.9367 3.25017 14.9356 3.25017 13.5003V10.5003C3.25017 9.65354 3.25072 8.958 3.27205 8.37486L3.27186 8.3746Z" fill="#3E1B86"/>
</svg>
