<svg width="24" height="24" viewBox="0 0 24 24" fill="none" xmlns="http://www.w3.org/2000/svg">
<path fill-rule="evenodd" clip-rule="evenodd" d="M14.829 4.17929C16.1806 2.82765 18.3722 2.82757 19.7236 4.17929C21.0753 5.53093 21.0753 7.72229 19.7236 9.07389L10.8908 17.9067C9.7296 19.0679 8.31398 19.9427 6.75618 20.4621L5.96196 20.7268C4.54236 21.2 3.11036 20.0424 3.27556 18.555C3.50392 16.4994 4.42516 14.5826 5.88776 13.1202L14.829 4.17929ZM18.5854 5.31765C17.8625 4.59469 16.6904 4.59469 15.9674 5.31765L15.195 6.08999L17.813 8.70799L18.5855 7.93557C19.3084 7.21267 19.3084 6.04049 18.5855 5.31757L18.5854 5.31765ZM16.6747 9.84645L14.0565 7.22845L7.14548 14.1394L8.18626 15.1803C8.50056 15.4946 8.50056 16.0043 8.18626 16.3186C7.87188 16.633 7.3622 16.633 7.0479 16.3186L6.10594 15.3766C5.43516 16.3741 5.00992 17.5244 4.87562 18.7332C4.84015 19.0528 5.1478 19.3015 5.4528 19.1998L6.2471 18.9351C7.56788 18.4948 8.7679 17.7531 9.7525 16.7687L16.6747 9.84645Z" fill="#3E1B86"/>
</svg>
