<svg width="24" height="24" viewBox="0 0 24 24" fill="none" xmlns="http://www.w3.org/2000/svg">
<path fill-rule="evenodd" clip-rule="evenodd" d="M9.59903 3.13948C9.76951 2.32968 10.4839 1.75 11.3115 1.75H12.6887C13.5163 1.75 14.2307 2.32968 14.4012 3.13948L14.4651 3.44339C14.4828 3.52734 14.5581 3.62867 14.7029 3.67567C15.1433 3.81857 15.5683 3.9954 15.9749 4.20303C16.1102 4.27213 16.2349 4.2538 16.3069 4.2069L16.5676 4.03684C17.2608 3.58477 18.1758 3.68005 18.761 4.26522L19.7349 5.23906C20.32 5.82423 20.4153 6.7393 19.9632 7.43246L19.7932 7.69325C19.7463 7.76517 19.7279 7.88994 19.797 8.02525C20.0046 8.43178 20.1815 8.8568 20.3244 9.29718C20.3714 9.442 20.4727 9.51728 20.5566 9.53496L20.8605 9.59893C21.6703 9.76942 22.25 10.4838 22.25 11.3114V12.6886C22.25 13.5162 21.6703 14.2306 20.8605 14.4011L20.5566 14.465C20.4727 14.4827 20.3714 14.558 20.3244 14.7028C20.1815 15.1432 20.0046 15.5683 19.797 15.9748C19.7279 16.1101 19.7462 16.2349 19.7931 16.3068L19.9631 16.5675C20.4152 17.2607 20.3199 18.1758 19.7348 18.7609L18.7609 19.7348C18.1758 20.3199 17.2607 20.4152 16.5675 19.9631L16.3068 19.7931C16.2349 19.7462 16.1101 19.7279 15.9748 19.797C15.5683 20.0046 15.1433 20.1814 14.7029 20.3243C14.5581 20.3713 14.4828 20.4727 14.4651 20.5566L14.4012 20.8605C14.2307 21.6703 13.5163 22.25 12.6887 22.25H11.3115C10.4839 22.25 9.76951 21.6703 9.59903 20.8605L9.53506 20.5567C9.51739 20.4727 9.4421 20.3714 9.29728 20.3244C8.85685 20.1815 8.43179 20.0047 8.02522 19.797C7.88991 19.7279 7.76513 19.7462 7.69322 19.7931L7.43257 19.9631C6.7394 20.4152 5.82433 20.3199 5.23916 19.7347L4.26533 18.7609C3.68016 18.1757 3.58488 17.2607 4.03695 16.5675L4.20692 16.3069C4.25382 16.235 4.27215 16.1102 4.20304 15.9749C3.99539 15.5683 3.81854 15.1432 3.67563 14.7028C3.62864 14.558 3.52731 14.4827 3.44335 14.465L3.13948 14.4011C2.32968 14.2306 1.75 13.5162 1.75 12.6886V11.3114C1.75 10.4838 2.32968 9.76942 3.13948 9.59893L3.44335 9.53496C3.52731 9.51728 3.62864 9.442 3.67563 9.29718C3.81854 8.85677 3.99537 8.43174 4.20301 8.02518C4.27212 7.88987 4.25378 7.76509 4.20688 7.69318L4.03686 7.43247C3.58479 6.73931 3.68007 5.82423 4.26524 5.23907L5.23907 4.26523C5.82424 3.68006 6.73931 3.58478 7.43248 4.03685L7.69319 4.20688C7.7651 4.25378 7.88988 4.27211 8.02519 4.203C8.43177 3.99535 8.85684 3.81851 9.29729 3.6756C9.4421 3.62861 9.51739 3.52728 9.53506 3.44332L9.59903 3.13948ZM11.3115 3.25C11.1933 3.25 11.0912 3.33281 11.0669 3.4485L11.0029 3.75233C10.8612 4.42534 10.3512 4.91062 9.76023 5.10238C9.39587 5.2206 9.04409 5.36693 8.70744 5.53887C8.1538 5.82163 7.44986 5.83899 6.87379 5.46329L6.61308 5.29326C6.51405 5.22868 6.38333 5.24229 6.29973 5.32589L5.3259 6.29973C5.2423 6.38332 5.22869 6.51405 5.29327 6.61307L5.4633 6.87378C5.839 7.44985 5.82163 8.15379 5.53887 8.70743C5.36695 9.04406 5.22062 9.39581 5.1024 9.76014C4.91064 10.3511 4.42537 10.8611 3.75237 11.0028L3.4485 11.0668C3.33281 11.0911 3.25 11.1932 3.25 11.3114V12.6886C3.25 12.8068 3.33281 12.9089 3.4485 12.9332L3.75237 12.9972C4.42537 13.1389 4.91064 13.6489 5.1024 14.2399C5.22063 14.6042 5.36696 14.956 5.5389 15.2926C5.82166 15.8463 5.83903 16.5502 5.46333 17.1263L5.29336 17.3869C5.22878 17.4859 5.24239 17.6167 5.32599 17.7002L6.29982 18.6741C6.38342 18.7577 6.51414 18.7713 6.61317 18.7067L6.87382 18.5367C7.44989 18.161 8.15382 18.1784 8.70746 18.4611C9.04411 18.6331 9.39587 18.7794 9.76022 18.8976C10.3512 19.0894 10.8612 19.5747 11.0029 20.2477L11.0669 20.5515C11.0912 20.6672 11.1933 20.75 11.3115 20.75H12.6887C12.8069 20.75 12.909 20.6672 12.9333 20.5515L12.9973 20.2476C13.139 19.5746 13.649 19.0893 14.2399 18.8976C14.6042 18.7794 14.956 18.633 15.2926 18.4611C15.8462 18.1784 16.5502 18.161 17.1262 18.5367L17.3869 18.7067C17.4859 18.7713 17.6167 18.7577 17.7003 18.6741L18.6741 17.7003C18.7577 17.6167 18.7713 17.4859 18.7067 17.3869L18.5367 17.1262C18.161 16.5501 18.1784 15.8462 18.4611 15.2926C18.6331 14.9559 18.7794 14.6042 18.8976 14.2399C19.0894 13.6489 19.5746 13.1389 20.2476 12.9972L20.5515 12.9332C20.6672 12.9089 20.75 12.8068 20.75 12.6886V11.3114C20.75 11.1932 20.6672 11.0911 20.5515 11.0668L20.2476 11.0028C19.5746 10.8611 19.0894 10.3511 18.8976 9.76014C18.7794 9.39583 18.6331 9.0441 18.4612 8.70749C18.1784 8.15385 18.161 7.44992 18.5367 6.87385L18.7068 6.61306C18.7714 6.51404 18.7578 6.38331 18.6742 6.29972L17.7004 5.32588C17.6168 5.24229 17.486 5.22867 17.387 5.29326L17.1263 5.46332C16.5502 5.83902 15.8462 5.82165 15.2926 5.53889C14.956 5.36697 14.6043 5.22065 14.2399 5.10243C13.649 4.91067 13.139 4.42539 12.9973 3.7524L12.9333 3.4485C12.909 3.33281 12.8069 3.25 12.6887 3.25H11.3115Z" fill="#3E1B86"/>
<path fill-rule="evenodd" clip-rule="evenodd" d="M8 12C8 9.79082 9.79093 8 12 8C14.2092 8 16 9.79083 16 12C16 14.2092 14.2092 16 12 16C9.79083 16 8 14.2092 8 12ZM12 9.5C10.6193 9.5 9.5 10.6193 9.5 12C9.5 13.3807 10.6193 14.5 12 14.5C13.3807 14.5 14.5 13.3807 14.5 12C14.5 10.6193 13.3807 9.5 12 9.5Z" fill="#3E1B86"/>
</svg>
