<svg width="24" height="24" viewBox="0 0 24 24" fill="none" xmlns="http://www.w3.org/2000/svg">
<path fill-rule="evenodd" clip-rule="evenodd" d="M8.25 13C8.25 10.929 9.9289 9.25 12 9.25C14.0711 9.25 15.75 10.9289 15.75 13C15.75 15.0711 14.0711 16.75 12 16.75C9.9289 16.75 8.25 15.0711 8.25 13ZM12 10.75C10.7574 10.75 9.75 11.7574 9.75 13C9.75 14.2426 10.7574 15.25 12 15.25C13.2426 15.25 14.25 14.2426 14.25 13C14.25 11.7574 13.2426 10.75 12 10.75Z" fill="#3E1B86"/>
<path d="M17.5 9.25C17.0858 9.25 16.75 9.58578 16.75 10C16.75 10.4142 17.0858 10.75 17.5 10.75H18.5C18.9142 10.75 19.25 10.4142 19.25 10C19.25 9.58578 18.9142 9.25 18.5 9.25H17.5Z" fill="#3E1B86"/>
<path fill-rule="evenodd" clip-rule="evenodd" d="M7.18162 6.0338C7.61936 4.39224 9.10608 3.25 10.805 3.25H13.1954C14.8943 3.25 16.381 4.39218 16.8186 6.0338C16.8239 6.0531 16.8444 6.07513 16.8783 6.07591C17.7532 6.09622 18.5812 6.14794 19.2889 6.28981C19.9849 6.42942 20.6658 6.67497 21.1517 7.16091C21.7537 7.76279 22.0126 8.52067 22.1336 9.42091C22.2501 10.2879 22.2501 11.3901 22.2501 12.7577V13.0001C22.2501 13.3048 22.2516 13.6013 22.2531 13.8888C22.2583 14.9023 22.263 15.8026 22.1981 16.5464C22.1154 17.4945 21.9092 18.3943 21.2731 19.0304C20.6457 19.6578 19.7277 19.8999 18.7501 20.0139C17.7647 20.1288 16.5433 20.1288 15.1619 20.1288H9.08094C7.69962 20.1288 6.47814 20.1288 5.49274 20.0139C4.51516 19.8999 3.59712 19.6578 2.96974 19.0304C2.36154 18.4223 2.07794 17.5622 1.92928 16.5952C1.77936 15.6204 1.75006 14.4122 1.75006 13.0002V12.7578C1.75006 11.3902 1.74998 10.288 1.86655 9.42099C1.98764 8.52083 2.24647 7.76295 2.84843 7.16099C3.33437 6.67505 4.01531 6.42951 4.71133 6.28989C5.41907 6.14801 6.24711 6.0963 7.12193 6.07599C7.15583 6.07521 7.17646 6.05318 7.18161 6.03388L7.18162 6.0338ZM10.805 4.75004C9.78564 4.75004 8.8937 5.43536 8.63102 6.42028C8.45047 7.09724 7.84312 7.5595 7.1568 7.57552C6.30196 7.59536 5.58086 7.64529 5.0062 7.76052C4.41988 7.87818 4.08534 8.04528 3.90902 8.22154C3.6323 8.49834 3.45184 8.88694 3.35316 9.62068C3.2516 10.3761 3.25004 11.3772 3.25004 12.8125V13C3.25004 14.4163 3.28136 15.519 3.41183 16.3672C3.54347 17.2234 3.75987 17.6992 4.03035 17.9697C4.28167 18.221 4.76011 18.4182 5.66645 18.5239C6.55535 18.6275 7.69105 18.6287 9.12145 18.6287H15.1215C16.5519 18.6287 17.6875 18.6275 18.5765 18.5239C19.4828 18.4182 19.9611 18.221 20.2125 17.9697C20.455 17.7271 20.6275 17.2911 20.7039 16.416C20.7621 15.7477 20.7582 14.9436 20.7532 13.9478C20.7518 13.6498 20.7501 13.3338 20.7501 13V12.8125C20.7501 11.3771 20.7486 10.3761 20.6469 9.62068C20.5483 8.88692 20.3679 8.49834 20.0911 8.22154C19.9148 8.04521 19.5804 7.87818 18.994 7.76052C18.4194 7.64529 17.6983 7.59536 16.8436 7.57552C16.1573 7.5595 15.5499 7.09724 15.3694 6.42028C15.1067 5.43536 14.2147 4.75004 13.1954 4.75004H10.805Z" fill="#3E1B86"/>
</svg>
