<svg width="24" height="24" viewBox="0 0 24 24" fill="none" xmlns="http://www.w3.org/2000/svg">
<path fill-rule="evenodd" clip-rule="evenodd" d="M12.2998 3.96966C12.5927 3.67679 13.0675 3.67677 13.3604 3.96966L19.4463 10.0556C20.5199 11.1295 20.52 12.8704 19.4463 13.9443L13.3604 20.0302C13.0675 20.3231 12.5927 20.323 12.2998 20.0302C12.0069 19.7373 12.0069 19.2626 12.2998 18.9697L18.3857 12.8837C18.4279 12.8416 18.4651 12.7962 18.5 12.7499H4.5C4.08582 12.7499 3.75005 12.4141 3.75 11.9999C3.75 11.5857 4.08579 11.2499 4.5 11.2499H18.5C18.4651 11.2037 18.4279 11.1583 18.3857 11.1161L12.2998 5.03021C12.0069 4.73731 12.0069 4.26255 12.2998 3.96966Z" fill="#3E1B86"/>
</svg>
