<svg width="24" height="24" viewBox="0 0 24 24" fill="none" xmlns="http://www.w3.org/2000/svg">
<path fill-rule="evenodd" clip-rule="evenodd" d="M7.94522 2.25004H16.055C17.4226 2.25004 18.5248 2.24996 19.3918 2.36652C20.2919 2.48762 21.0497 2.74644 21.6518 3.3484C22.2537 3.95028 22.5126 4.70816 22.6336 5.6084C22.7501 6.47536 22.7501 7.5777 22.7501 8.9452V11.555C22.7501 12.9226 22.7501 14.0248 22.6336 14.8918C22.5126 15.7919 22.2537 16.5497 21.6518 17.1518C21.0498 17.7537 20.292 18.0126 19.3918 18.1336C18.5248 18.2501 17.4225 18.2501 16.055 18.2501H9.41102C9.07118 18.2501 8.9543 18.251 8.84884 18.2618C8.27166 18.321 7.73954 18.6009 7.36376 19.043C7.29517 19.1238 7.22814 19.2196 7.03564 19.4997L6.86126 19.7532C6.62634 20.095 6.44244 20.3625 6.29836 20.562C6.16172 20.7513 6.0268 20.9287 5.89344 21.0552C4.33438 22.5352 1.75624 21.7345 1.31004 19.6317C1.27192 19.4519 1.26114 19.2293 1.25575 18.9959C1.25012 18.7498 1.25012 18.4252 1.25012 18.0106V8.94516C1.25012 7.57758 1.25004 6.47516 1.36661 5.60836C1.4877 4.7082 1.74653 3.95032 2.34849 3.34836C2.95037 2.7464 3.70825 2.48758 4.60849 2.36648C5.47545 2.24992 6.57779 2.25 7.94529 2.25L7.94522 2.25004ZM4.80822 3.85316C4.07446 3.95183 3.68588 4.1323 3.40908 4.40902C3.13236 4.68582 2.9519 5.07442 2.85322 5.80816C2.75166 6.56348 2.7501 7.56464 2.7501 8.99996V18C2.7501 18.4272 2.75017 18.7346 2.75533 18.9614C2.76088 19.2028 2.77189 19.2946 2.77736 19.32C2.98018 20.276 4.15204 20.6399 4.86076 19.9671C4.87967 19.9492 4.94076 19.8797 5.08208 19.6839C5.21482 19.5 5.38896 19.2468 5.63106 18.8947L5.82114 18.6182C5.98395 18.3814 6.09622 18.2181 6.22074 18.0715C6.84698 17.3346 7.73378 16.8681 8.69594 16.7695C8.88727 16.7499 9.0854 16.7499 9.3729 16.7499H16.0001C17.4355 16.7499 18.4365 16.7484 19.1919 16.6468C19.9257 16.5482 20.3142 16.3678 20.591 16.091C20.8678 15.8142 21.0482 15.4256 21.1469 14.6918C21.2485 13.9364 21.25 12.9353 21.25 11.5V9.00002C21.25 7.56462 21.2485 6.56342 21.1469 5.80822C21.0482 5.07446 20.8678 4.68588 20.591 4.40908C20.3142 4.13236 19.9257 3.9519 19.1919 3.85322C18.4365 3.75166 17.4354 3.7501 16.0001 3.7501H8.0001C6.5647 3.7501 5.5635 3.75166 4.8083 3.85322L4.80822 3.85316Z" fill="#3E1B86"/>
</svg>
