<svg width="24" height="24" viewBox="0 0 24 24" fill="none" xmlns="http://www.w3.org/2000/svg">
<path fill-rule="evenodd" clip-rule="evenodd" d="M8.50014 3.75C8.91436 3.75 9.25014 4.08578 9.25014 4.5V4.75344C9.62366 4.75 10.0217 4.75 10.4452 4.75H13.555C13.9785 4.75 14.3766 4.75 14.7501 4.75344V4.5C14.7501 4.08578 15.0859 3.75 15.5001 3.75C15.9143 3.75 16.2501 4.08578 16.2501 4.5V4.80274C16.4769 4.81876 16.6907 4.83946 16.8919 4.86649C17.792 4.98758 18.5498 5.24641 19.1519 5.84837C19.7538 6.45025 20.0127 7.20813 20.1337 8.10837C20.2502 8.97533 20.2502 10.0776 20.2502 11.4452V14.536C20.2502 15.4402 20.2502 16.1695 20.1969 16.7578C20.1419 17.3641 20.0256 17.8939 19.7478 18.3752C19.4187 18.9453 18.9453 19.4187 18.3752 19.7478C17.894 20.0256 17.3642 20.1419 16.7578 20.1969C16.1695 20.2502 15.4402 20.2502 14.536 20.2502H10.4452C9.07766 20.2502 7.97536 20.2502 7.10836 20.1337C6.2082 20.0127 5.45032 19.7538 4.84836 19.1519C4.2464 18.5499 3.98758 17.7921 3.86648 16.8919C3.74992 16.0249 3.75 14.9226 3.75 13.5551V11.4453C3.75 10.0777 3.74992 8.97551 3.86648 8.10851C3.98758 7.20835 4.2464 6.45047 4.84836 5.84851C5.45024 5.24655 6.20812 4.98773 7.10836 4.86663C7.30946 4.8396 7.52328 4.81889 7.75008 4.80288V4.50014C7.75008 4.08592 8.08586 3.75014 8.50008 3.75014L8.50014 3.75ZM14.7501 6.2536V6.49992C14.7501 6.91414 15.0859 7.24992 15.5001 7.24992C15.9144 7.24992 16.2501 6.91414 16.2501 6.49992V6.30664C16.4065 6.31914 16.5534 6.33445 16.692 6.35304C17.4258 6.45172 17.8144 6.63218 18.0912 6.9089C18.368 7.1857 18.5483 7.5743 18.647 8.30804C18.6656 8.44664 18.6809 8.59358 18.6934 8.74992H5.30683C5.31933 8.5936 5.33464 8.44664 5.35323 8.30804C5.45191 7.57428 5.63237 7.1857 5.90909 6.9089C6.18589 6.63218 6.57449 6.45172 7.30823 6.35304C7.44683 6.33445 7.59377 6.31914 7.75011 6.30664V6.49992C7.75011 6.91414 8.08589 7.24992 8.50011 7.24992C8.91433 7.24992 9.25011 6.91414 9.25011 6.49992V6.2536C9.62651 6.25008 10.0411 6.24993 10.5001 6.24993H13.5001C13.9591 6.24993 14.3737 6.25008 14.7501 6.2536H14.7501ZM5.25374 10.25C5.25023 10.6264 5.25007 11.041 5.25007 11.5V13.5C5.25007 14.9354 5.25163 15.9364 5.35319 16.6918C5.45187 17.4256 5.63233 17.8141 5.90905 18.0909C6.18585 18.3677 6.57445 18.5481 7.30819 18.6468C8.06351 18.7484 9.06467 18.7499 10.5 18.7499H14.5C15.4484 18.7499 16.1096 18.7492 16.6222 18.7027C17.1245 18.6572 17.4101 18.5725 17.625 18.4485C17.9671 18.251 18.2511 17.967 18.4486 17.6249C18.5726 17.41 18.6573 17.1245 18.7028 16.6221C18.7493 16.1095 18.75 15.4483 18.75 14.4999V11.4999C18.75 11.0409 18.7498 10.6263 18.7464 10.2499L5.25374 10.25Z" fill="#3E1B86"/>
<path d="M6.79395 15.678C6.79395 15.2637 7.12973 14.928 7.54395 14.928H12.8835C13.2977 14.928 13.6335 15.2637 13.6335 15.678C13.6335 16.0922 13.2977 16.428 12.8835 16.428H7.54395C7.12973 16.428 6.79395 16.0922 6.79395 15.678Z" fill="#3E1B86"/>
<path d="M7.54395 12.0874C7.12973 12.0874 6.79395 12.4231 6.79395 12.8374C6.79395 13.2516 7.12973 13.5874 7.54395 13.5874H10.5439C10.9582 13.5874 11.2939 13.2516 11.2939 12.8374C11.2939 12.4231 10.9582 12.0874 10.5439 12.0874H7.54395Z" fill="#3E1B86"/>
</svg>
