<svg width="125" height="41" viewBox="0 0 125 41" fill="none" xmlns="http://www.w3.org/2000/svg">
<g clip-path="url(#clip0_20_1407)">
<path d="M0.0377197 0.763916H19.3556V5.32815H11.9872V20.0108H7.40612V5.32815H0.0377197V0.763916Z" fill="#3E1B86"/>
<path d="M51.42 16.1616C52.5972 16.1616 53.6644 15.8411 54.6212 15.1993C55.5776 14.5579 56.2771 13.7145 56.7186 12.6696H61.5205C61.0052 14.9976 59.8047 16.9223 57.9189 18.4438C56.033 19.9654 53.8665 20.7258 51.4198 20.7258C49.5432 20.7258 47.809 20.2628 46.2179 19.3374C44.6262 18.412 43.366 17.1562 42.4372 15.5705C41.508 13.9852 41.0436 12.2572 41.0436 10.3876C41.0436 8.5179 41.508 6.79042 42.4372 5.2046C43.366 3.61931 44.6264 2.36369 46.2179 1.43777C47.809 0.512538 49.5434 0.0493164 51.4198 0.0493164C53.8665 0.0493164 56.0328 0.810052 57.9189 2.33152C59.8045 3.85317 61.005 5.77784 61.5205 8.10553H56.7186C56.2771 7.0606 55.5776 6.21788 54.6212 5.57598C53.6644 4.93459 52.5972 4.61373 51.42 4.61373C49.8194 4.61373 48.4533 5.17727 47.3219 6.30454C46.1905 7.43198 45.6247 8.79293 45.6247 10.3876C45.6247 11.9822 46.1905 13.3433 47.3219 14.4706C48.4533 15.5979 49.8194 16.1616 51.42 16.1616Z" fill="#3E1B86"/>
<path d="M102.755 20.0108H94.3658L88.0462 3.18363V20.0108H83.4651V0.763916H91.7441L98.1743 17.9211V0.763916H102.755L102.755 20.0108Z" fill="#3E1B86"/>
<path d="M109.257 1.43777C110.848 0.512538 112.582 0.0493164 114.459 0.0493164C116.335 0.0493164 118.069 0.512538 119.661 1.43777C121.252 2.36369 122.512 3.61948 123.442 5.2046C124.37 6.79042 124.835 8.5179 124.835 10.3876C124.835 12.2572 124.37 13.9851 123.442 15.5705C122.512 17.1562 121.252 18.412 119.661 19.3374C118.069 20.2628 116.335 20.7258 114.459 20.7258C112.582 20.7258 110.848 20.2628 109.257 19.3374C107.665 18.412 106.405 17.1562 105.476 15.5705C104.547 13.9852 104.082 12.2572 104.082 10.3876C104.082 8.5179 104.547 6.79042 105.476 5.2046C106.405 3.61931 107.665 2.36369 109.257 1.43777ZM110.361 14.4706C111.492 15.5979 112.858 16.1616 114.459 16.1616C116.059 16.1616 117.425 15.5979 118.557 14.4706C119.688 13.3433 120.254 11.9822 120.254 10.3876C120.254 8.79293 119.688 7.43198 118.557 6.30454C117.425 5.17727 116.059 4.61373 114.459 4.61373C112.858 4.61373 111.492 5.17727 110.361 6.30454C109.229 7.43198 108.663 8.79293 108.663 10.3876C108.663 11.9822 109.229 13.3433 110.361 14.4706Z" fill="#3E1B86"/>
<path d="M20.6279 21.333H39.9458V25.8972H32.5774V40.5799H27.9963V25.8972H20.6279V21.333Z" fill="#3E1B86"/>
<path d="M45.854 36.0156H56.8377V40.5799H41.2729V21.333H45.854V36.0156Z" fill="#3E1B86"/>
<path d="M77.4522 40.5799H69.0628L62.7432 23.7526V40.5799H58.1621V21.333H66.4411L72.8713 38.4902V21.333H77.4524V40.5799H77.4522Z" fill="#3E1B86"/>
<path d="M11.9872 28.6743V21.333H7.40595V28.6743H0.0377197V33.2386H7.40595V40.5799H11.9872V33.2386H19.3556V28.6743H11.9872Z" fill="#3E1B86"/>
<path d="M40.0005 5.35566V0.763916H20.6826V20.0108H40.0005V15.4466H25.2635V12.6643H36.7953V8.10783H25.2635V5.35566H40.0005Z" fill="#3E1B86"/>
<path d="M77.5567 0.763916V8.10783H67.4286V0.763916H62.8475V20.0108H67.4286V12.6643H77.5567V20.0108H82.1378V0.763916H77.5567Z" fill="#3E1B86"/>
</g>
<defs>
<clipPath id="clip0_20_1407">
<rect width="125" height="41" fill="white"/>
</clipPath>
</defs>
</svg>
